<svg width="284" height="56" viewBox="0 0 284 56" fill="none" xmlns="http://www.w3.org/2000/svg">
<path d="M0.5 30C0.5 13.7076 13.7076 0.5 30 0.5H256C271.188 0.5 283.5 12.8122 283.5 28C283.5 43.1878 271.188 55.5 256 55.5H0.5V30Z" stroke="#141C15"/>
<path d="M16.86 22.04H27V36H25.32V23.52H18.54V36H16.86V22.04ZM30.5672 25.68H32.1672V27.36H32.2472C32.5139 26.7067 32.9005 26.2267 33.4072 25.92C33.9272 25.6 34.5472 25.44 35.2672 25.44C35.9072 25.44 36.4872 25.5667 37.0072 25.82C37.5272 26.0733 37.9672 26.4333 38.3272 26.9C38.7005 27.3667 38.9805 27.9333 39.1672 28.6C39.3672 29.2667 39.4672 30.0133 39.4672 30.84C39.4672 31.6667 39.3672 32.4133 39.1672 33.08C38.9805 33.7467 38.7005 34.3133 38.3272 34.78C37.9672 35.2467 37.5272 35.6067 37.0072 35.86C36.4872 36.1133 35.9072 36.24 35.2672 36.24C33.8672 36.24 32.8605 35.6 32.2472 34.32H32.1672V40H30.5672V25.68ZM34.8272 34.8C35.7339 34.8 36.4472 34.52 36.9672 33.96C37.4872 33.3867 37.7472 32.64 37.7472 31.72V29.96C37.7472 29.04 37.4872 28.3 36.9672 27.74C36.4472 27.1667 35.7339 26.88 34.8272 26.88C34.4672 26.88 34.1205 26.9333 33.7872 27.04C33.4672 27.1333 33.1872 27.2667 32.9472 27.44C32.7072 27.6133 32.5139 27.8267 32.3672 28.08C32.2339 28.32 32.1672 28.58 32.1672 28.86V32.7C32.1672 33.0333 32.2339 33.3333 32.3672 33.6C32.5139 33.8533 32.7072 34.0733 32.9472 34.26C33.1872 34.4333 33.4672 34.5667 33.7872 34.66C34.1205 34.7533 34.4672 34.8 34.8272 34.8ZM42.1688 25.68H43.7288V31.4L43.5688 33.88H43.6488L44.9288 31.68L49.0488 25.68H50.5288V36H48.9688V30.28L49.1288 27.8H49.0488L47.7688 30L43.6488 36H42.1688V25.68ZM53.9266 25.68H59.1266C59.9666 25.68 60.6266 25.92 61.1066 26.4C61.5866 26.8667 61.8266 27.5 61.8266 28.3C61.8266 29.5933 61.1532 30.32 59.8066 30.48V30.56C60.6066 30.6267 61.1999 30.88 61.5866 31.32C61.9866 31.7467 62.1866 32.28 62.1866 32.92C62.1866 33.3333 62.1199 33.7267 61.9866 34.1C61.8666 34.4733 61.6866 34.8 61.4466 35.08C61.2066 35.36 60.9132 35.5867 60.5666 35.76C60.2199 35.92 59.8266 36 59.3866 36H53.9266V25.68ZM58.9066 34.68C59.3866 34.68 59.7666 34.5533 60.0466 34.3C60.3266 34.0467 60.4666 33.6867 60.4666 33.22V32.76C60.4666 32.2933 60.3266 31.9333 60.0466 31.68C59.7666 31.4267 59.3866 31.3 58.9066 31.3H55.5266V34.68H58.9066ZM58.7066 30C59.1466 30 59.4866 29.8933 59.7266 29.68C59.9799 29.4533 60.1066 29.1333 60.1066 28.72V28.28C60.1066 27.8667 59.9799 27.5533 59.7266 27.34C59.4866 27.1133 59.1466 27 58.7066 27H55.5266V30H58.7066ZM68.9589 36.24C68.2522 36.24 67.6122 36.1133 67.0389 35.86C66.4789 35.6067 65.9922 35.2467 65.5789 34.78C65.1789 34.3 64.8656 33.7333 64.6389 33.08C64.4256 32.4133 64.3189 31.6667 64.3189 30.84C64.3189 30.0267 64.4256 29.2867 64.6389 28.62C64.8656 27.9533 65.1789 27.3867 65.5789 26.92C65.9922 26.44 66.4789 26.0733 67.0389 25.82C67.6122 25.5667 68.2522 25.44 68.9589 25.44C69.6522 25.44 70.2722 25.5667 70.8189 25.82C71.3656 26.0733 71.8322 26.4267 72.2189 26.88C72.6056 27.32 72.8989 27.8467 73.0989 28.46C73.3122 29.0733 73.4189 29.7467 73.4189 30.48V31.24H65.9989V31.72C65.9989 32.16 66.0656 32.5733 66.1989 32.96C66.3456 33.3333 66.5456 33.66 66.7989 33.94C67.0656 34.22 67.3856 34.44 67.7589 34.6C68.1456 34.76 68.5789 34.84 69.0589 34.84C69.7122 34.84 70.2789 34.6867 70.7589 34.38C71.2522 34.0733 71.6322 33.6333 71.8989 33.06L73.0389 33.88C72.7056 34.5867 72.1856 35.16 71.4789 35.6C70.7722 36.0267 69.9322 36.24 68.9589 36.24ZM68.9589 26.78C68.5189 26.78 68.1189 26.86 67.7589 27.02C67.3989 27.1667 67.0856 27.38 66.8189 27.66C66.5656 27.94 66.3656 28.2733 66.2189 28.66C66.0722 29.0333 65.9989 29.4467 65.9989 29.9V30.04H71.6989V29.82C71.6989 28.9 71.4456 28.1667 70.9389 27.62C70.4456 27.06 69.7856 26.78 68.9589 26.78ZM78.0216 27.08H74.5016V25.68H83.1416V27.08H79.6216V36H78.0216V27.08ZM84.6536 33.66C85.0803 33.66 85.3869 33.7733 85.5736 34C85.7736 34.2133 85.8736 34.4933 85.8736 34.84V35.12C85.8736 35.6667 85.7136 36.2667 85.3936 36.92C85.0736 37.5867 84.6269 38.1667 84.0536 38.66H82.7136C83.1136 38.2333 83.4336 37.8267 83.6736 37.44C83.9269 37.0667 84.1069 36.6467 84.2136 36.18C83.9469 36.1133 83.7469 35.9867 83.6136 35.8C83.4936 35.6133 83.4336 35.3867 83.4336 35.12V34.84C83.4336 34.4933 83.5269 34.2133 83.7136 34C83.9136 33.7733 84.2269 33.66 84.6536 33.66ZM101.309 36C100.709 36 100.276 35.84 100.009 35.52C99.756 35.2 99.596 34.8 99.5294 34.32H99.4294C99.2027 34.96 98.8294 35.44 98.3094 35.76C97.7894 36.08 97.1694 36.24 96.4494 36.24C95.356 36.24 94.5027 35.96 93.8894 35.4C93.2894 34.84 92.9894 34.08 92.9894 33.12C92.9894 32.1467 93.3427 31.4 94.0494 30.88C94.7694 30.36 95.8827 30.1 97.3894 30.1H99.4294V29.08C99.4294 28.3467 99.2294 27.7867 98.8294 27.4C98.4294 27.0133 97.816 26.82 96.9894 26.82C96.3627 26.82 95.836 26.96 95.4094 27.24C94.996 27.52 94.6494 27.8933 94.3694 28.36L93.4094 27.46C93.6894 26.9 94.136 26.4267 94.7494 26.04C95.3627 25.64 96.136 25.44 97.0694 25.44C98.3227 25.44 99.296 25.7467 99.9894 26.36C100.683 26.9733 101.029 27.8267 101.029 28.92V34.6H102.209V36H101.309ZM96.7094 34.88C97.1094 34.88 97.476 34.8333 97.8094 34.74C98.1427 34.6467 98.4294 34.5133 98.6694 34.34C98.9094 34.1667 99.096 33.9667 99.2294 33.74C99.3627 33.5133 99.4294 33.2667 99.4294 33V31.3H97.3094C96.3894 31.3 95.716 31.4333 95.2894 31.7C94.876 31.9667 94.6694 32.3533 94.6694 32.86V33.28C94.6694 33.7867 94.8494 34.18 95.2094 34.46C95.5827 34.74 96.0827 34.88 96.7094 34.88ZM114.98 31.26H114.88C114.56 31.62 114.166 31.92 113.7 32.16C113.233 32.3867 112.62 32.5 111.86 32.5C110.806 32.5 109.986 32.24 109.4 31.72C108.813 31.1867 108.52 30.3867 108.52 29.32V25.68H110.12V29.18C110.12 30.4333 110.86 31.06 112.34 31.06C113.1 31.06 113.726 30.96 114.22 30.76C114.726 30.5467 114.98 30.2267 114.98 29.8V25.68H116.58V36H114.98V31.26ZM122.201 27.08H118.681V25.68H127.321V27.08H123.801V36H122.201V27.08ZM133.061 36.24C132.368 36.24 131.734 36.1133 131.161 35.86C130.588 35.6067 130.094 35.2467 129.681 34.78C129.281 34.3 128.968 33.7333 128.741 33.08C128.514 32.4133 128.401 31.6667 128.401 30.84C128.401 30.0267 128.514 29.2867 128.741 28.62C128.968 27.9533 129.281 27.3867 129.681 26.92C130.094 26.44 130.588 26.0733 131.161 25.82C131.734 25.5667 132.368 25.44 133.061 25.44C133.754 25.44 134.381 25.5667 134.941 25.82C135.514 26.0733 136.008 26.44 136.421 26.92C136.834 27.3867 137.154 27.9533 137.381 28.62C137.608 29.2867 137.721 30.0267 137.721 30.84C137.721 31.6667 137.608 32.4133 137.381 33.08C137.154 33.7333 136.834 34.3 136.421 34.78C136.008 35.2467 135.514 35.6067 134.941 35.86C134.381 36.1133 133.754 36.24 133.061 36.24ZM133.061 34.82C133.928 34.82 134.634 34.5533 135.181 34.02C135.728 33.4867 136.001 32.6733 136.001 31.58V30.1C136.001 29.0067 135.728 28.1933 135.181 27.66C134.634 27.1267 133.928 26.86 133.061 26.86C132.194 26.86 131.488 27.1267 130.941 27.66C130.394 28.1933 130.121 29.0067 130.121 30.1V31.58C130.121 32.6733 130.394 33.4867 130.941 34.02C131.488 34.5533 132.194 34.82 133.061 34.82ZM146.459 30.12H150.939V29.96C150.939 29.04 150.692 28.2933 150.199 27.72C149.719 27.1467 148.979 26.86 147.979 26.86C147.272 26.86 146.686 27.0133 146.219 27.32C145.752 27.6133 145.379 28.06 145.099 28.66L143.939 27.88C144.272 27.1333 144.766 26.54 145.419 26.1C146.086 25.66 146.939 25.44 147.979 25.44C148.726 25.44 149.386 25.5667 149.959 25.82C150.546 26.0733 151.039 26.4333 151.439 26.9C151.839 27.3667 152.139 27.9333 152.339 28.6C152.552 29.2667 152.659 30.0133 152.659 30.84C152.659 31.6667 152.552 32.4133 152.339 33.08C152.139 33.7467 151.839 34.3133 151.439 34.78C151.039 35.2467 150.546 35.6067 149.959 35.86C149.386 36.1133 148.726 36.24 147.979 36.24C146.899 36.24 146.046 36.02 145.419 35.58C144.806 35.1267 144.346 34.54 144.039 33.82L145.379 33.14C145.566 33.6733 145.872 34.0867 146.299 34.38C146.726 34.6733 147.286 34.82 147.979 34.82C148.979 34.82 149.719 34.5333 150.199 33.96C150.692 33.3867 150.939 32.64 150.939 31.72V31.46H146.459V30.12ZM157.26 27.08H153.74V25.68H162.38V27.08H158.86V36H157.26V27.08ZM168.12 36.24C167.426 36.24 166.793 36.1133 166.22 35.86C165.646 35.6067 165.153 35.2467 164.74 34.78C164.34 34.3 164.026 33.7333 163.8 33.08C163.573 32.4133 163.46 31.6667 163.46 30.84C163.46 30.0267 163.573 29.2867 163.8 28.62C164.026 27.9533 164.34 27.3867 164.74 26.92C165.153 26.44 165.646 26.0733 166.22 25.82C166.793 25.5667 167.426 25.44 168.12 25.44C168.813 25.44 169.44 25.5667 170 25.82C170.573 26.0733 171.066 26.44 171.48 26.92C171.893 27.3867 172.213 27.9533 172.44 28.62C172.666 29.2867 172.78 30.0267 172.78 30.84C172.78 31.6667 172.666 32.4133 172.44 33.08C172.213 33.7333 171.893 34.3 171.48 34.78C171.066 35.2467 170.573 35.6067 170 35.86C169.44 36.1133 168.813 36.24 168.12 36.24ZM168.12 34.82C168.986 34.82 169.693 34.5533 170.24 34.02C170.786 33.4867 171.06 32.6733 171.06 31.58V30.1C171.06 29.0067 170.786 28.1933 170.24 27.66C169.693 27.1267 168.986 26.86 168.12 26.86C167.253 26.86 166.546 27.1267 166 27.66C165.453 28.1933 165.18 29.0067 165.18 30.1V31.58C165.18 32.6733 165.453 33.4867 166 34.02C166.546 34.5533 167.253 34.82 168.12 34.82ZM186.498 25.68H188.078L183.458 38.4C183.338 38.7067 183.218 38.96 183.098 39.16C182.978 39.3733 182.831 39.54 182.658 39.66C182.484 39.78 182.264 39.8667 181.998 39.92C181.744 39.9733 181.431 40 181.058 40H180.238V38.6H181.858L182.638 36.4L178.778 25.68H180.378L182.858 32.7L183.338 34.38H183.438L183.998 32.7L186.498 25.68ZM194.845 25.68H200.045C200.885 25.68 201.545 25.92 202.025 26.4C202.505 26.8667 202.745 27.5 202.745 28.3C202.745 29.5933 202.071 30.32 200.725 30.48V30.56C201.525 30.6267 202.118 30.88 202.505 31.32C202.905 31.7467 203.105 32.28 203.105 32.92C203.105 33.3333 203.038 33.7267 202.905 34.1C202.785 34.4733 202.605 34.8 202.365 35.08C202.125 35.36 201.831 35.5867 201.485 35.76C201.138 35.92 200.745 36 200.305 36H194.845V25.68ZM199.825 34.68C200.305 34.68 200.685 34.5533 200.965 34.3C201.245 34.0467 201.385 33.6867 201.385 33.22V32.76C201.385 32.2933 201.245 31.9333 200.965 31.68C200.685 31.4267 200.305 31.3 199.825 31.3H196.445V34.68H199.825ZM199.625 30C200.065 30 200.405 29.8933 200.645 29.68C200.898 29.4533 201.025 29.1333 201.025 28.72V28.28C201.025 27.8667 200.898 27.5533 200.645 27.34C200.405 27.1133 200.065 27 199.625 27H196.445V30H199.625ZM213.399 36C212.799 36 212.366 35.84 212.099 35.52C211.846 35.2 211.686 34.8 211.619 34.32H211.519C211.293 34.96 210.919 35.44 210.399 35.76C209.879 36.08 209.259 36.24 208.539 36.24C207.446 36.24 206.593 35.96 205.979 35.4C205.379 34.84 205.079 34.08 205.079 33.12C205.079 32.1467 205.433 31.4 206.139 30.88C206.859 30.36 207.973 30.1 209.479 30.1H211.519V29.08C211.519 28.3467 211.319 27.7867 210.919 27.4C210.519 27.0133 209.906 26.82 209.079 26.82C208.453 26.82 207.926 26.96 207.499 27.24C207.086 27.52 206.739 27.8933 206.459 28.36L205.499 27.46C205.779 26.9 206.226 26.4267 206.839 26.04C207.453 25.64 208.226 25.44 209.159 25.44C210.413 25.44 211.386 25.7467 212.079 26.36C212.773 26.9733 213.119 27.8267 213.119 28.92V34.6H214.299V36H213.399ZM208.799 34.88C209.199 34.88 209.566 34.8333 209.899 34.74C210.233 34.6467 210.519 34.5133 210.759 34.34C210.999 34.1667 211.186 33.9667 211.319 33.74C211.453 33.5133 211.519 33.2667 211.519 33V31.3H209.399C208.479 31.3 207.806 31.4333 207.379 31.7C206.966 31.9667 206.759 32.3533 206.759 32.86V33.28C206.759 33.7867 206.939 34.18 207.299 34.46C207.673 34.74 208.173 34.88 208.799 34.88ZM220.423 36.24C219.703 36.24 219.056 36.1133 218.483 35.86C217.909 35.6067 217.423 35.2467 217.023 34.78C216.636 34.3133 216.336 33.7467 216.123 33.08C215.923 32.4133 215.823 31.6667 215.823 30.84C215.823 30.0133 215.923 29.2667 216.123 28.6C216.336 27.9333 216.636 27.3667 217.023 26.9C217.423 26.4333 217.909 26.0733 218.483 25.82C219.056 25.5667 219.703 25.44 220.423 25.44C221.449 25.44 222.269 25.6667 222.883 26.12C223.509 26.56 223.976 27.14 224.283 27.86L222.943 28.54C222.756 28.0067 222.449 27.5933 222.023 27.3C221.596 27.0067 221.063 26.86 220.423 26.86C219.943 26.86 219.523 26.94 219.163 27.1C218.803 27.2467 218.503 27.46 218.263 27.74C218.023 28.0067 217.843 28.3333 217.723 28.72C217.603 29.0933 217.543 29.5067 217.543 29.96V31.72C217.543 32.6267 217.783 33.3733 218.263 33.96C218.756 34.5333 219.476 34.82 220.423 34.82C221.716 34.82 222.649 34.22 223.223 33.02L224.383 33.8C224.049 34.5467 223.549 35.14 222.883 35.58C222.229 36.02 221.409 36.24 220.423 36.24ZM233.588 27.08H230.068V25.68H238.708V27.08H235.188V36H233.588V27.08ZM247.337 25.68H248.917L244.297 38.4C244.177 38.7067 244.057 38.96 243.937 39.16C243.817 39.3733 243.671 39.54 243.497 39.66C243.324 39.78 243.104 39.8667 242.837 39.92C242.584 39.9733 242.271 40 241.897 40H241.077V38.6H242.697L243.477 36.4L239.617 25.68H241.217L243.697 32.7L244.177 34.38H244.277L244.837 32.7L247.337 25.68ZM253.315 27.08H249.795V25.68H258.435V27.08H254.915V36H253.315V27.08ZM262.408 31.84V28.56C263.501 28.5067 264.355 28.24 264.968 27.76C265.595 27.28 265.908 26.62 265.908 25.78V25.5C265.908 24.82 265.695 24.28 265.268 23.88C264.841 23.4667 264.268 23.26 263.548 23.26C262.775 23.26 262.155 23.48 261.688 23.92C261.235 24.36 260.928 24.92 260.768 25.6L259.288 25.04C259.408 24.6133 259.581 24.2067 259.808 23.82C260.048 23.42 260.341 23.0733 260.688 22.78C261.048 22.4733 261.468 22.2333 261.948 22.06C262.428 21.8867 262.981 21.8 263.608 21.8C264.848 21.8 265.828 22.14 266.548 22.82C267.268 23.5 267.628 24.42 267.628 25.58C267.628 26.22 267.515 26.78 267.288 27.26C267.075 27.7267 266.795 28.1267 266.448 28.46C266.101 28.7933 265.708 29.06 265.268 29.26C264.828 29.46 264.388 29.6 263.948 29.68V31.84H262.408ZM263.188 36.24C262.761 36.24 262.448 36.1333 262.248 35.92C262.061 35.7067 261.968 35.4267 261.968 35.08V34.82C261.968 34.4733 262.061 34.1933 262.248 33.98C262.448 33.7667 262.761 33.66 263.188 33.66C263.615 33.66 263.921 33.7667 264.108 33.98C264.308 34.1933 264.408 34.4733 264.408 34.82V35.08C264.408 35.4267 264.308 35.7067 264.108 35.92C263.921 36.1333 263.615 36.24 263.188 36.24Z" fill="#141C15"/>
</svg>
