<svg width="445" height="108" viewBox="0 0 445 108" fill="none" xmlns="http://www.w3.org/2000/svg">
<path d="M0 30C0 13.4315 13.4315 0 30 0H415C431.569 0 445 13.4315 445 30V108H30C13.4315 108 0 94.5685 0 78V30Z" fill="#0C8341"/>
<path d="M16.86 22.04H27V36H25.32V23.52H18.54V36H16.86V22.04ZM30.5672 25.68H32.1672V27.36H32.2472C32.5139 26.7067 32.9005 26.2267 33.4072 25.92C33.9272 25.6 34.5472 25.44 35.2672 25.44C35.9072 25.44 36.4872 25.5667 37.0072 25.82C37.5272 26.0733 37.9672 26.4333 38.3272 26.9C38.7005 27.3667 38.9805 27.9333 39.1672 28.6C39.3672 29.2667 39.4672 30.0133 39.4672 30.84C39.4672 31.6667 39.3672 32.4133 39.1672 33.08C38.9805 33.7467 38.7005 34.3133 38.3272 34.78C37.9672 35.2467 37.5272 35.6067 37.0072 35.86C36.4872 36.1133 35.9072 36.24 35.2672 36.24C33.8672 36.24 32.8605 35.6 32.2472 34.32H32.1672V40H30.5672V25.68ZM34.8272 34.8C35.7339 34.8 36.4472 34.52 36.9672 33.96C37.4872 33.3867 37.7472 32.64 37.7472 31.72V29.96C37.7472 29.04 37.4872 28.3 36.9672 27.74C36.4472 27.1667 35.7339 26.88 34.8272 26.88C34.4672 26.88 34.1205 26.9333 33.7872 27.04C33.4672 27.1333 33.1872 27.2667 32.9472 27.44C32.7072 27.6133 32.5139 27.8267 32.3672 28.08C32.2339 28.32 32.1672 28.58 32.1672 28.86V32.7C32.1672 33.0333 32.2339 33.3333 32.3672 33.6C32.5139 33.8533 32.7072 34.0733 32.9472 34.26C33.1872 34.4333 33.4672 34.5667 33.7872 34.66C34.1205 34.7533 34.4672 34.8 34.8272 34.8ZM42.1688 25.68H43.7288V31.4L43.5688 33.88H43.6488L44.9288 31.68L49.0488 25.68H50.5288V36H48.9688V30.28L49.1288 27.8H49.0488L47.7688 30L43.6488 36H42.1688V25.68ZM53.9266 25.68H59.1266C59.9666 25.68 60.6266 25.92 61.1066 26.4C61.5866 26.8667 61.8266 27.5 61.8266 28.3C61.8266 29.5933 61.1532 30.32 59.8066 30.48V30.56C60.6066 30.6267 61.1999 30.88 61.5866 31.32C61.9866 31.7467 62.1866 32.28 62.1866 32.92C62.1866 33.3333 62.1199 33.7267 61.9866 34.1C61.8666 34.4733 61.6866 34.8 61.4466 35.08C61.2066 35.36 60.9132 35.5867 60.5666 35.76C60.2199 35.92 59.8266 36 59.3866 36H53.9266V25.68ZM58.9066 34.68C59.3866 34.68 59.7666 34.5533 60.0466 34.3C60.3266 34.0467 60.4666 33.6867 60.4666 33.22V32.76C60.4666 32.2933 60.3266 31.9333 60.0466 31.68C59.7666 31.4267 59.3866 31.3 58.9066 31.3H55.5266V34.68H58.9066ZM58.7066 30C59.1466 30 59.4866 29.8933 59.7266 29.68C59.9799 29.4533 60.1066 29.1333 60.1066 28.72V28.28C60.1066 27.8667 59.9799 27.5533 59.7266 27.34C59.4866 27.1133 59.1466 27 58.7066 27H55.5266V30H58.7066ZM68.9589 36.24C68.2522 36.24 67.6122 36.1133 67.0389 35.86C66.4789 35.6067 65.9922 35.2467 65.5789 34.78C65.1789 34.3 64.8656 33.7333 64.6389 33.08C64.4256 32.4133 64.3189 31.6667 64.3189 30.84C64.3189 30.0267 64.4256 29.2867 64.6389 28.62C64.8656 27.9533 65.1789 27.3867 65.5789 26.92C65.9922 26.44 66.4789 26.0733 67.0389 25.82C67.6122 25.5667 68.2522 25.44 68.9589 25.44C69.6522 25.44 70.2722 25.5667 70.8189 25.82C71.3656 26.0733 71.8322 26.4267 72.2189 26.88C72.6056 27.32 72.8989 27.8467 73.0989 28.46C73.3122 29.0733 73.4189 29.7467 73.4189 30.48V31.24H65.9989V31.72C65.9989 32.16 66.0656 32.5733 66.1989 32.96C66.3456 33.3333 66.5456 33.66 66.7989 33.94C67.0656 34.22 67.3856 34.44 67.7589 34.6C68.1456 34.76 68.5789 34.84 69.0589 34.84C69.7122 34.84 70.2789 34.6867 70.7589 34.38C71.2522 34.0733 71.6322 33.6333 71.8989 33.06L73.0389 33.88C72.7056 34.5867 72.1856 35.16 71.4789 35.6C70.7722 36.0267 69.9322 36.24 68.9589 36.24ZM68.9589 26.78C68.5189 26.78 68.1189 26.86 67.7589 27.02C67.3989 27.1667 67.0856 27.38 66.8189 27.66C66.5656 27.94 66.3656 28.2733 66.2189 28.66C66.0722 29.0333 65.9989 29.4467 65.9989 29.9V30.04H71.6989V29.82C71.6989 28.9 71.4456 28.1667 70.9389 27.62C70.4456 27.06 69.7856 26.78 68.9589 26.78ZM78.0216 27.08H74.5016V25.68H83.1416V27.08H79.6216V36H78.0216V27.08ZM85.9752 32.3L85.4952 26.1V22.04H87.2552V26.1L86.7752 32.3H85.9752ZM86.3752 36.24C85.9485 36.24 85.6352 36.1333 85.4352 35.92C85.2485 35.7067 85.1552 35.4267 85.1552 35.08V34.82C85.1552 34.4733 85.2485 34.1933 85.4352 33.98C85.6352 33.7667 85.9485 33.66 86.3752 33.66C86.8018 33.66 87.1085 33.7667 87.2952 33.98C87.4952 34.1933 87.5952 34.4733 87.5952 34.82V35.08C87.5952 35.4267 87.4952 35.7067 87.2952 35.92C87.1085 36.1333 86.8018 36.24 86.3752 36.24ZM97.7253 28.2H103.605V27.9C103.605 26.46 103.272 25.3333 102.605 24.52C101.939 23.7067 100.965 23.3 99.6853 23.3C98.7653 23.3 98.012 23.52 97.4253 23.96C96.852 24.3867 96.4253 24.96 96.1453 25.68L94.7853 24.86C95.2253 23.8867 95.8453 23.1333 96.6453 22.6C97.4586 22.0667 98.472 21.8 99.6853 21.8C101.525 21.8 102.939 22.4067 103.925 23.62C104.912 24.82 105.405 26.5933 105.405 28.94C105.405 31.2867 104.912 33.0933 103.925 34.36C102.939 35.6133 101.525 36.24 99.6853 36.24C98.4453 36.24 97.412 35.96 96.5853 35.4C95.7586 34.8267 95.1253 34.0467 94.6853 33.06L96.0253 32.22C96.3053 32.98 96.7453 33.5933 97.3453 34.06C97.9453 34.5133 98.7253 34.74 99.6853 34.74C100.325 34.74 100.885 34.6267 101.365 34.4C101.859 34.1733 102.265 33.8533 102.585 33.44C102.919 33.0133 103.172 32.5067 103.345 31.92C103.519 31.3333 103.605 30.68 103.605 29.96V29.68H97.7253V28.2ZM110.483 27.08H106.963V25.68H115.603V27.08H112.083V36H110.483V27.08ZM121.342 36.24C120.649 36.24 120.016 36.1133 119.442 35.86C118.869 35.6067 118.376 35.2467 117.962 34.78C117.562 34.3 117.249 33.7333 117.022 33.08C116.796 32.4133 116.682 31.6667 116.682 30.84C116.682 30.0267 116.796 29.2867 117.022 28.62C117.249 27.9533 117.562 27.3867 117.962 26.92C118.376 26.44 118.869 26.0733 119.442 25.82C120.016 25.5667 120.649 25.44 121.342 25.44C122.036 25.44 122.662 25.5667 123.222 25.82C123.796 26.0733 124.289 26.44 124.702 26.92C125.116 27.3867 125.436 27.9533 125.662 28.62C125.889 29.2867 126.002 30.0267 126.002 30.84C126.002 31.6667 125.889 32.4133 125.662 33.08C125.436 33.7333 125.116 34.3 124.702 34.78C124.289 35.2467 123.796 35.6067 123.222 35.86C122.662 36.1133 122.036 36.24 121.342 36.24ZM121.342 34.82C122.209 34.82 122.916 34.5533 123.462 34.02C124.009 33.4867 124.282 32.6733 124.282 31.58V30.1C124.282 29.0067 124.009 28.1933 123.462 27.66C122.916 27.1267 122.209 26.86 121.342 26.86C120.476 26.86 119.769 27.1267 119.222 27.66C118.676 28.1933 118.402 29.0067 118.402 30.1V31.58C118.402 32.6733 118.676 33.4867 119.222 34.02C119.769 34.5533 120.476 34.82 121.342 34.82ZM133.36 25.68H134.96V30H137.02L139.02 26.84C139.167 26.6 139.307 26.4067 139.44 26.26C139.573 26.1 139.707 25.98 139.84 25.9C139.973 25.82 140.113 25.7667 140.26 25.74C140.407 25.7 140.573 25.68 140.76 25.68H141.7V27.08H140.46L138.84 29.64C138.733 29.8133 138.64 29.9533 138.56 30.06C138.48 30.1667 138.4 30.26 138.32 30.34C138.24 30.4067 138.153 30.4667 138.06 30.52C137.967 30.56 137.853 30.6 137.72 30.64V30.72C138 30.76 138.24 30.8533 138.44 31C138.653 31.1333 138.873 31.4 139.1 31.8L140.68 34.6H141.86V36H140.7C140.353 36 140.033 35.9133 139.74 35.74C139.46 35.5533 139.187 35.22 138.92 34.74L137.02 31.36H134.96V36H133.36V25.68ZM142.816 34.6H144.176C144.35 34.36 144.503 34.0733 144.636 33.74C144.77 33.4067 144.883 33.0067 144.976 32.54C145.07 32.0733 145.143 31.52 145.196 30.88C145.25 30.24 145.276 29.4867 145.276 28.62V25.68H152.256V36H150.656V27.08H146.796V28.66C146.796 29.66 146.756 30.5333 146.676 31.28C146.61 32.0267 146.51 32.6667 146.376 33.2C146.256 33.7333 146.11 34.1733 145.936 34.52C145.763 34.8533 145.576 35.12 145.376 35.32C145.123 35.5733 144.843 35.7533 144.536 35.86C144.23 35.9533 143.863 36 143.436 36H142.816V34.6ZM162.025 25.68H163.605L158.985 38.4C158.865 38.7067 158.745 38.96 158.625 39.16C158.505 39.3733 158.358 39.54 158.185 39.66C158.012 39.78 157.792 39.8667 157.525 39.92C157.272 39.9733 156.958 40 156.585 40H155.765V38.6H157.385L158.165 36.4L154.305 25.68H155.905L158.385 32.7L158.865 34.38H158.965L159.525 32.7L162.025 25.68ZM169.625 36.24C168.905 36.24 168.259 36.12 167.685 35.88C167.112 35.64 166.625 35.2667 166.225 34.76C165.825 34.2533 165.512 33.6 165.285 32.8C165.072 31.9867 164.965 31.0067 164.965 29.86C164.965 28.38 165.059 27.1133 165.245 26.06C165.445 25.0067 165.759 24.14 166.185 23.46C166.612 22.78 167.152 22.2733 167.805 21.94C168.472 21.5933 169.279 21.38 170.225 21.3L173.465 21.04V22.66L170.025 22.94C169.439 22.9933 168.945 23.1067 168.545 23.28C168.145 23.4533 167.812 23.7267 167.545 24.1C167.292 24.46 167.092 24.94 166.945 25.54C166.812 26.14 166.712 26.8867 166.645 27.78H166.725C167.032 27.0733 167.425 26.5467 167.905 26.2C168.399 25.8533 169.045 25.68 169.845 25.68C170.499 25.68 171.099 25.8 171.645 26.04C172.192 26.28 172.659 26.6267 173.045 27.08C173.432 27.52 173.732 28.0733 173.945 28.74C174.172 29.3933 174.285 30.14 174.285 30.98C174.285 31.7667 174.172 32.48 173.945 33.12C173.719 33.76 173.399 34.3133 172.985 34.78C172.572 35.2467 172.079 35.6067 171.505 35.86C170.945 36.1133 170.319 36.24 169.625 36.24ZM169.705 34.82C170.119 34.82 170.499 34.7533 170.845 34.62C171.192 34.4867 171.492 34.2867 171.745 34.02C171.999 33.7533 172.199 33.4267 172.345 33.04C172.492 32.6533 172.565 32.2 172.565 31.68V30.42C172.565 29.3 172.292 28.4667 171.745 27.92C171.199 27.3733 170.465 27.1 169.545 27.1C168.585 27.1 167.865 27.34 167.385 27.82C166.919 28.2867 166.685 28.9 166.685 29.66V31.5C166.685 32.62 166.959 33.4533 167.505 34C168.052 34.5467 168.785 34.82 169.705 34.82ZM180.121 34.6H181.301C181.714 33.9333 182.048 33.1 182.301 32.1C182.554 31.1 182.681 29.9533 182.681 28.66V25.68H189.661V34.6H191.381V38.8H189.921V36H181.581V38.8H180.121V34.6ZM188.061 34.6V27.08H184.201V28.74C184.201 30.1133 184.081 31.2867 183.841 32.26C183.614 33.22 183.341 34 183.021 34.6H188.061ZM192.172 34.6H193.532C193.705 34.36 193.858 34.0733 193.992 33.74C194.125 33.4067 194.238 33.0067 194.332 32.54C194.425 32.0733 194.498 31.52 194.552 30.88C194.605 30.24 194.632 29.4867 194.632 28.62V25.68H201.612V36H200.012V27.08H196.152V28.66C196.152 29.66 196.112 30.5333 196.032 31.28C195.965 32.0267 195.865 32.6667 195.732 33.2C195.612 33.7333 195.465 34.1733 195.292 34.52C195.118 34.8533 194.932 35.12 194.732 35.32C194.478 35.5733 194.198 35.7533 193.892 35.86C193.585 35.9533 193.218 36 192.792 36H192.172V34.6ZM204.1 34.6H205.24L205.9 33.08C206.047 32.7333 206.227 32.4733 206.44 32.3C206.654 32.1133 206.894 32 207.16 31.96V31.88C206.24 31.8 205.547 31.5 205.08 30.98C204.614 30.46 204.38 29.76 204.38 28.88C204.38 27.88 204.68 27.1 205.28 26.54C205.88 25.9667 206.707 25.68 207.76 25.68H212.32V36H210.72V32.04H208.04L206.96 34.58C206.72 35.14 206.454 35.52 206.16 35.72C205.88 35.9067 205.56 36 205.2 36H204.1V34.6ZM210.72 30.68V27.08H208C207.4 27.08 206.934 27.1933 206.6 27.42C206.267 27.6467 206.1 28.0267 206.1 28.56V29.22C206.1 29.7533 206.267 30.1333 206.6 30.36C206.934 30.5733 207.4 30.68 208 30.68H210.72ZM220.45 25.68H222.55L225.69 31.04H225.77L228.89 25.68H230.97V36H229.41V27.6H229.31L228.73 28.72L225.71 33.84L222.69 28.72L222.11 27.6H222.01V36H220.45V25.68ZM241.876 36C241.276 36 240.842 35.84 240.576 35.52C240.322 35.2 240.162 34.8 240.096 34.32H239.996C239.769 34.96 239.396 35.44 238.876 35.76C238.356 36.08 237.736 36.24 237.016 36.24C235.922 36.24 235.069 35.96 234.456 35.4C233.856 34.84 233.556 34.08 233.556 33.12C233.556 32.1467 233.909 31.4 234.616 30.88C235.336 30.36 236.449 30.1 237.956 30.1H239.996V29.08C239.996 28.3467 239.796 27.7867 239.396 27.4C238.996 27.0133 238.382 26.82 237.556 26.82C236.929 26.82 236.402 26.96 235.976 27.24C235.562 27.52 235.216 27.8933 234.936 28.36L233.976 27.46C234.256 26.9 234.702 26.4267 235.316 26.04C235.929 25.64 236.702 25.44 237.636 25.44C238.889 25.44 239.862 25.7467 240.556 26.36C241.249 26.9733 241.596 27.8267 241.596 28.92V34.6H242.776V36H241.876ZM237.276 34.88C237.676 34.88 238.042 34.8333 238.376 34.74C238.709 34.6467 238.996 34.5133 239.236 34.34C239.476 34.1667 239.662 33.9667 239.796 33.74C239.929 33.5133 239.996 33.2667 239.996 33V31.3H237.876C236.956 31.3 236.282 31.4333 235.856 31.7C235.442 31.9667 235.236 32.3533 235.236 32.86V33.28C235.236 33.7867 235.416 34.18 235.776 34.46C236.149 34.74 236.649 34.88 237.276 34.88ZM245.059 25.68H246.659V29.98H251.819V25.68H253.419V36H251.819V31.38H246.659V36H245.059V25.68ZM264.317 36C263.717 36 263.284 35.84 263.017 35.52C262.764 35.2 262.604 34.8 262.537 34.32H262.437C262.211 34.96 261.837 35.44 261.317 35.76C260.797 36.08 260.177 36.24 259.457 36.24C258.364 36.24 257.511 35.96 256.897 35.4C256.297 34.84 255.997 34.08 255.997 33.12C255.997 32.1467 256.351 31.4 257.057 30.88C257.777 30.36 258.891 30.1 260.397 30.1H262.437V29.08C262.437 28.3467 262.237 27.7867 261.837 27.4C261.437 27.0133 260.824 26.82 259.997 26.82C259.371 26.82 258.844 26.96 258.417 27.24C258.004 27.52 257.657 27.8933 257.377 28.36L256.417 27.46C256.697 26.9 257.144 26.4267 257.757 26.04C258.371 25.64 259.144 25.44 260.077 25.44C261.331 25.44 262.304 25.7467 262.997 26.36C263.691 26.9733 264.037 27.8267 264.037 28.92V34.6H265.217V36H264.317ZM259.717 34.88C260.117 34.88 260.484 34.8333 260.817 34.74C261.151 34.6467 261.437 34.5133 261.677 34.34C261.917 34.1667 262.104 33.9667 262.237 33.74C262.371 33.5133 262.437 33.2667 262.437 33V31.3H260.317C259.397 31.3 258.724 31.4333 258.297 31.7C257.884 31.9667 257.677 32.3533 257.677 32.86V33.28C257.677 33.7867 257.857 34.18 258.217 34.46C258.591 34.74 259.091 34.88 259.717 34.88ZM266.318 36L270.138 30.8L266.478 25.68H268.358L270.978 29.52H271.038L273.758 25.68H275.538L271.898 30.68L275.618 36H273.738L271.058 31.96H270.998L268.098 36H266.318ZM281.341 36.24C280.621 36.24 279.974 36.1133 279.401 35.86C278.827 35.6067 278.341 35.2467 277.941 34.78C277.554 34.3133 277.254 33.7467 277.041 33.08C276.841 32.4133 276.741 31.6667 276.741 30.84C276.741 30.0133 276.841 29.2667 277.041 28.6C277.254 27.9333 277.554 27.3667 277.941 26.9C278.341 26.4333 278.827 26.0733 279.401 25.82C279.974 25.5667 280.621 25.44 281.341 25.44C282.367 25.44 283.187 25.6667 283.801 26.12C284.427 26.56 284.894 27.14 285.201 27.86L283.861 28.54C283.674 28.0067 283.367 27.5933 282.941 27.3C282.514 27.0067 281.981 26.86 281.341 26.86C280.861 26.86 280.441 26.94 280.081 27.1C279.721 27.2467 279.421 27.46 279.181 27.74C278.941 28.0067 278.761 28.3333 278.641 28.72C278.521 29.0933 278.461 29.5067 278.461 29.96V31.72C278.461 32.6267 278.701 33.3733 279.181 33.96C279.674 34.5333 280.394 34.82 281.341 34.82C282.634 34.82 283.567 34.22 284.141 33.02L285.301 33.8C284.967 34.5467 284.467 35.14 283.801 35.58C283.147 36.02 282.327 36.24 281.341 36.24ZM295.206 36.24C294.153 36.24 293.313 36.06 292.686 35.7C292.059 35.34 291.546 34.8267 291.146 34.16L292.346 33.2C292.613 33.7067 292.979 34.1067 293.446 34.4C293.926 34.68 294.513 34.82 295.206 34.82C296.046 34.82 296.666 34.6667 297.066 34.36C297.479 34.0533 297.686 33.66 297.686 33.18V32.94C297.686 32.42 297.506 32.0267 297.146 31.76C296.799 31.48 296.306 31.34 295.666 31.34H293.466V30H295.466C296.106 30 296.599 29.8733 296.946 29.62C297.293 29.3667 297.466 29.0067 297.466 28.54V28.3C297.466 27.86 297.286 27.5133 296.926 27.26C296.579 26.9933 295.993 26.86 295.166 26.86C294.486 26.86 293.926 27 293.486 27.28C293.046 27.5467 292.693 27.9133 292.426 28.38L291.366 27.48C291.686 26.88 292.153 26.3933 292.766 26.02C293.393 25.6333 294.219 25.44 295.246 25.44C296.593 25.44 297.586 25.6867 298.226 26.18C298.866 26.6733 299.186 27.3533 299.186 28.22C299.186 28.86 299.013 29.3667 298.666 29.74C298.333 30.1133 297.846 30.3733 297.206 30.52V30.6C297.939 30.7067 298.486 30.9733 298.846 31.4C299.219 31.8133 299.406 32.3467 299.406 33C299.406 34 299.026 34.7933 298.266 35.38C297.519 35.9533 296.499 36.24 295.206 36.24ZM309.708 36C309.108 36 308.674 35.84 308.408 35.52C308.154 35.2 307.994 34.8 307.928 34.32H307.828C307.601 34.96 307.228 35.44 306.708 35.76C306.188 36.08 305.568 36.24 304.848 36.24C303.754 36.24 302.901 35.96 302.288 35.4C301.688 34.84 301.388 34.08 301.388 33.12C301.388 32.1467 301.741 31.4 302.448 30.88C303.168 30.36 304.281 30.1 305.788 30.1H307.828V29.08C307.828 28.3467 307.628 27.7867 307.228 27.4C306.828 27.0133 306.214 26.82 305.388 26.82C304.761 26.82 304.234 26.96 303.808 27.24C303.394 27.52 303.048 27.8933 302.768 28.36L301.808 27.46C302.088 26.9 302.534 26.4267 303.148 26.04C303.761 25.64 304.534 25.44 305.468 25.44C306.721 25.44 307.694 25.7467 308.388 26.36C309.081 26.9733 309.428 27.8267 309.428 28.92V34.6H310.608V36H309.708ZM305.108 34.88C305.508 34.88 305.874 34.8333 306.208 34.74C306.541 34.6467 306.828 34.5133 307.068 34.34C307.308 34.1667 307.494 33.9667 307.628 33.74C307.761 33.5133 307.828 33.2667 307.828 33V31.3H305.708C304.788 31.3 304.114 31.4333 303.688 31.7C303.274 31.9667 303.068 32.3533 303.068 32.86V33.28C303.068 33.7867 303.248 34.18 303.608 34.46C303.981 34.74 304.481 34.88 305.108 34.88ZM320.538 36.24C319.485 36.24 318.645 36.06 318.018 35.7C317.391 35.34 316.878 34.8267 316.478 34.16L317.678 33.2C317.945 33.7067 318.311 34.1067 318.778 34.4C319.258 34.68 319.845 34.82 320.538 34.82C321.378 34.82 321.998 34.6667 322.398 34.36C322.811 34.0533 323.018 33.66 323.018 33.18V32.94C323.018 32.42 322.838 32.0267 322.478 31.76C322.131 31.48 321.638 31.34 320.998 31.34H318.798V30H320.798C321.438 30 321.931 29.8733 322.278 29.62C322.625 29.3667 322.798 29.0067 322.798 28.54V28.3C322.798 27.86 322.618 27.5133 322.258 27.26C321.911 26.9933 321.325 26.86 320.498 26.86C319.818 26.86 319.258 27 318.818 27.28C318.378 27.5467 318.025 27.9133 317.758 28.38L316.698 27.48C317.018 26.88 317.485 26.3933 318.098 26.02C318.725 25.6333 319.551 25.44 320.578 25.44C321.925 25.44 322.918 25.6867 323.558 26.18C324.198 26.6733 324.518 27.3533 324.518 28.22C324.518 28.86 324.345 29.3667 323.998 29.74C323.665 30.1133 323.178 30.3733 322.538 30.52V30.6C323.271 30.7067 323.818 30.9733 324.178 31.4C324.551 31.8133 324.738 32.3467 324.738 33C324.738 34 324.358 34.7933 323.598 35.38C322.851 35.9533 321.831 36.24 320.538 36.24ZM335.04 36C334.44 36 334.007 35.84 333.74 35.52C333.487 35.2 333.327 34.8 333.26 34.32H333.16C332.933 34.96 332.56 35.44 332.04 35.76C331.52 36.08 330.9 36.24 330.18 36.24C329.087 36.24 328.233 35.96 327.62 35.4C327.02 34.84 326.72 34.08 326.72 33.12C326.72 32.1467 327.073 31.4 327.78 30.88C328.5 30.36 329.613 30.1 331.12 30.1H333.16V29.08C333.16 28.3467 332.96 27.7867 332.56 27.4C332.16 27.0133 331.547 26.82 330.72 26.82C330.093 26.82 329.567 26.96 329.14 27.24C328.727 27.52 328.38 27.8933 328.1 28.36L327.14 27.46C327.42 26.9 327.867 26.4267 328.48 26.04C329.093 25.64 329.867 25.44 330.8 25.44C332.053 25.44 333.027 25.7467 333.72 26.36C334.413 26.9733 334.76 27.8267 334.76 28.92V34.6H335.94V36H335.04ZM330.44 34.88C330.84 34.88 331.207 34.8333 331.54 34.74C331.873 34.6467 332.16 34.5133 332.4 34.34C332.64 34.1667 332.827 33.9667 332.96 33.74C333.093 33.5133 333.16 33.2667 333.16 33V31.3H331.04C330.12 31.3 329.447 31.4333 329.02 31.7C328.607 31.9667 328.4 32.3533 328.4 32.86V33.28C328.4 33.7867 328.58 34.18 328.94 34.46C329.313 34.74 329.813 34.88 330.44 34.88ZM338.223 25.68H339.823V30H341.883L343.883 26.84C344.03 26.6 344.17 26.4067 344.303 26.26C344.437 26.1 344.57 25.98 344.703 25.9C344.837 25.82 344.977 25.7667 345.123 25.74C345.27 25.7 345.437 25.68 345.623 25.68H346.563V27.08H345.323L343.703 29.64C343.597 29.8133 343.503 29.9533 343.423 30.06C343.343 30.1667 343.263 30.26 343.183 30.34C343.103 30.4067 343.017 30.4667 342.923 30.52C342.83 30.56 342.717 30.6 342.583 30.64V30.72C342.863 30.76 343.103 30.8533 343.303 31C343.517 31.1333 343.737 31.4 343.963 31.8L345.543 34.6H346.723V36H345.563C345.217 36 344.897 35.9133 344.603 35.74C344.323 35.5533 344.05 35.22 343.783 34.74L341.883 31.36H339.823V36H338.223V25.68ZM349.22 25.68H350.82V27.36H350.9C351.166 26.7067 351.553 26.2267 352.06 25.92C352.58 25.6 353.2 25.44 353.92 25.44C354.56 25.44 355.14 25.5667 355.66 25.82C356.18 26.0733 356.62 26.4333 356.98 26.9C357.353 27.3667 357.633 27.9333 357.82 28.6C358.02 29.2667 358.12 30.0133 358.12 30.84C358.12 31.6667 358.02 32.4133 357.82 33.08C357.633 33.7467 357.353 34.3133 356.98 34.78C356.62 35.2467 356.18 35.6067 355.66 35.86C355.14 36.1133 354.56 36.24 353.92 36.24C352.52 36.24 351.513 35.6 350.9 34.32H350.82V40H349.22V25.68ZM353.48 34.8C354.386 34.8 355.1 34.52 355.62 33.96C356.14 33.3867 356.4 32.64 356.4 31.72V29.96C356.4 29.04 356.14 28.3 355.62 27.74C355.1 27.1667 354.386 26.88 353.48 26.88C353.12 26.88 352.773 26.9333 352.44 27.04C352.12 27.1333 351.84 27.2667 351.6 27.44C351.36 27.6133 351.166 27.8267 351.02 28.08C350.886 28.32 350.82 28.58 350.82 28.86V32.7C350.82 33.0333 350.886 33.3333 351.02 33.6C351.166 33.8533 351.36 34.0733 351.6 34.26C351.84 34.4333 352.12 34.5667 352.44 34.66C352.773 34.7533 353.12 34.8 353.48 34.8ZM360.821 25.68H362.421V29.42H365.161C366.201 29.42 367.028 29.7133 367.641 30.3C368.254 30.8867 368.561 31.6933 368.561 32.72C368.561 33.76 368.261 34.5667 367.661 35.14C367.061 35.7133 366.234 36 365.181 36H360.821V25.68ZM364.941 34.6C365.541 34.6 366.008 34.4867 366.341 34.26C366.674 34.0333 366.841 33.6533 366.841 33.12V32.28C366.841 31.7467 366.674 31.3733 366.341 31.16C366.008 30.9333 365.541 30.82 364.941 30.82H362.421V34.6H364.941ZM370.301 25.68H371.901V36H370.301V25.68ZM377.514 27.08H373.994V25.68H382.634V27.08H379.114V36H377.514V27.08ZM384.727 25.68H386.327V29.42H389.067C390.107 29.42 390.934 29.7133 391.547 30.3C392.161 30.8867 392.467 31.6933 392.467 32.72C392.467 33.76 392.167 34.5667 391.567 35.14C390.967 35.7133 390.141 36 389.087 36H384.727V25.68ZM388.847 34.6C389.447 34.6 389.914 34.4867 390.247 34.26C390.581 34.0333 390.747 33.6533 390.747 33.12V32.28C390.747 31.7467 390.581 31.3733 390.247 31.16C389.914 30.9333 389.447 30.82 388.847 30.82H386.327V34.6H388.847ZM394.207 25.68H395.807V36H394.207V25.68ZM399.2 25.68H401.3L404.44 31.04H404.52L407.64 25.68H409.72V36H408.16V27.6H408.06L407.48 28.72L404.46 33.84L401.44 28.72L400.86 27.6H400.76V36H399.2V25.68ZM413.126 25.68H414.686V31.4L414.526 33.88H414.606L415.886 31.68L420.006 25.68H421.486V36H419.926V30.28L420.086 27.8H420.006L418.726 30L414.606 36H413.126V25.68ZM15.16 60.6H16.34C16.7533 59.9333 17.0867 59.1 17.34 58.1C17.5933 57.1 17.72 55.9533 17.72 54.66V51.68H24.7V60.6H26.42V64.8H24.96V62H16.62V64.8H15.16V60.6ZM23.1 60.6V53.08H19.24V54.74C19.24 56.1133 19.12 57.2867 18.88 58.26C18.6533 59.22 18.38 60 18.06 60.6H23.1ZM28.6336 51.68H33.8336C34.6736 51.68 35.3336 51.92 35.8136 52.4C36.2936 52.8667 36.5336 53.5 36.5336 54.3C36.5336 55.5933 35.8603 56.32 34.5136 56.48V56.56C35.3136 56.6267 35.9069 56.88 36.2936 57.32C36.6936 57.7467 36.8936 58.28 36.8936 58.92C36.8936 59.3333 36.8269 59.7267 36.6936 60.1C36.5736 60.4733 36.3936 60.8 36.1536 61.08C35.9136 61.36 35.6203 61.5867 35.2736 61.76C34.9269 61.92 34.5336 62 34.0936 62H28.6336V51.68ZM33.6136 60.68C34.0936 60.68 34.4736 60.5533 34.7536 60.3C35.0336 60.0467 35.1736 59.6867 35.1736 59.22V58.76C35.1736 58.2933 35.0336 57.9333 34.7536 57.68C34.4736 57.4267 34.0936 57.3 33.6136 57.3H30.2336V60.68H33.6136ZM33.4136 56C33.8536 56 34.1936 55.8933 34.4336 55.68C34.6869 55.4533 34.8136 55.1333 34.8136 54.72V54.28C34.8136 53.8667 34.6869 53.5533 34.4336 53.34C34.1936 53.1133 33.8536 53 33.4136 53H30.2336V56H33.4136ZM43.6659 62.24C42.9593 62.24 42.3193 62.1133 41.7459 61.86C41.1859 61.6067 40.6993 61.2467 40.2859 60.78C39.8859 60.3 39.5726 59.7333 39.3459 59.08C39.1326 58.4133 39.0259 57.6667 39.0259 56.84C39.0259 56.0267 39.1326 55.2867 39.3459 54.62C39.5726 53.9533 39.8859 53.3867 40.2859 52.92C40.6993 52.44 41.1859 52.0733 41.7459 51.82C42.3193 51.5667 42.9593 51.44 43.6659 51.44C44.3593 51.44 44.9793 51.5667 45.5259 51.82C46.0726 52.0733 46.5393 52.4267 46.9259 52.88C47.3126 53.32 47.6059 53.8467 47.8059 54.46C48.0193 55.0733 48.1259 55.7467 48.1259 56.48V57.24H40.7059V57.72C40.7059 58.16 40.7726 58.5733 40.9059 58.96C41.0526 59.3333 41.2526 59.66 41.5059 59.94C41.7726 60.22 42.0926 60.44 42.4659 60.6C42.8526 60.76 43.2859 60.84 43.7659 60.84C44.4193 60.84 44.9859 60.6867 45.4659 60.38C45.9593 60.0733 46.3393 59.6333 46.6059 59.06L47.7459 59.88C47.4126 60.5867 46.8926 61.16 46.1859 61.6C45.4793 62.0267 44.6393 62.24 43.6659 62.24ZM43.6659 52.78C43.2259 52.78 42.8259 52.86 42.4659 53.02C42.1059 53.1667 41.7926 53.38 41.5259 53.66C41.2726 53.94 41.0726 54.2733 40.9259 54.66C40.7793 55.0333 40.7059 55.4467 40.7059 55.9V56.04H46.4059V55.82C46.4059 54.9 46.1526 54.1667 45.6459 53.62C45.1526 53.06 44.4926 52.78 43.6659 52.78ZM50.7625 51.68H52.3625V53.36H52.4425C52.7092 52.7067 53.0958 52.2267 53.6025 51.92C54.1225 51.6 54.7425 51.44 55.4625 51.44C56.1025 51.44 56.6825 51.5667 57.2025 51.82C57.7225 52.0733 58.1625 52.4333 58.5225 52.9C58.8958 53.3667 59.1758 53.9333 59.3625 54.6C59.5625 55.2667 59.6625 56.0133 59.6625 56.84C59.6625 57.6667 59.5625 58.4133 59.3625 59.08C59.1758 59.7467 58.8958 60.3133 58.5225 60.78C58.1625 61.2467 57.7225 61.6067 57.2025 61.86C56.6825 62.1133 56.1025 62.24 55.4625 62.24C54.0625 62.24 53.0558 61.6 52.4425 60.32H52.3625V66H50.7625V51.68ZM55.0225 60.8C55.9292 60.8 56.6425 60.52 57.1625 59.96C57.6825 59.3867 57.9425 58.64 57.9425 57.72V55.96C57.9425 55.04 57.6825 54.3 57.1625 53.74C56.6425 53.1667 55.9292 52.88 55.0225 52.88C54.6625 52.88 54.3158 52.9333 53.9825 53.04C53.6625 53.1333 53.3825 53.2667 53.1425 53.44C52.9025 53.6133 52.7092 53.8267 52.5625 54.08C52.4292 54.32 52.3625 54.58 52.3625 54.86V58.7C52.3625 59.0333 52.4292 59.3333 52.5625 59.6C52.7092 59.8533 52.9025 60.0733 53.1425 60.26C53.3825 60.4333 53.6625 60.5667 53.9825 60.66C54.3158 60.7533 54.6625 60.8 55.0225 60.8ZM61.4441 60.6H62.5841L63.2441 59.08C63.3907 58.7333 63.5707 58.4733 63.7841 58.3C63.9974 58.1133 64.2374 58 64.5041 57.96V57.88C63.5841 57.8 62.8907 57.5 62.4241 56.98C61.9574 56.46 61.7241 55.76 61.7241 54.88C61.7241 53.88 62.0241 53.1 62.6241 52.54C63.2241 51.9667 64.0507 51.68 65.1041 51.68H69.6641V62H68.0641V58.04H65.3841L64.3041 60.58C64.0641 61.14 63.7974 61.52 63.5041 61.72C63.2241 61.9067 62.9041 62 62.5441 62H61.4441V60.6ZM68.0641 56.68V53.08H65.3441C64.7441 53.08 64.2774 53.1933 63.9441 53.42C63.6107 53.6467 63.4441 54.0267 63.4441 54.56V55.22C63.4441 55.7533 63.6107 56.1333 63.9441 56.36C64.2774 56.5733 64.7441 56.68 65.3441 56.68H68.0641ZM73.0672 51.68H75.1672L78.3072 57.04H78.3872L81.5072 51.68H83.5872V62H82.0272V53.6H81.9272L81.3472 54.72L78.3272 59.84L75.3072 54.72L74.7272 53.6H74.6272V62H73.0672V51.68ZM86.993 51.68H88.553V57.4L88.393 59.88H88.473L89.753 57.68L93.873 51.68H95.353V62H93.793V56.28L93.953 53.8H93.873L92.593 56L88.473 62H86.993V51.68ZM99.7708 59.66C100.197 59.66 100.504 59.7733 100.691 60C100.891 60.2133 100.991 60.4933 100.991 60.84V61.12C100.991 61.6667 100.831 62.2667 100.511 62.92C100.191 63.5867 99.7441 64.1667 99.1708 64.66H97.8308C98.2308 64.2333 98.5508 63.8267 98.7908 63.44C99.0441 63.0667 99.2241 62.6467 99.3308 62.18C99.0641 62.1133 98.8641 61.9867 98.7308 61.8C98.6108 61.6133 98.5508 61.3867 98.5508 61.12V60.84C98.5508 60.4933 98.6441 60.2133 98.8308 60C99.0308 59.7733 99.3441 59.66 99.7708 59.66ZM108.927 51.68H114.127C114.967 51.68 115.627 51.92 116.107 52.4C116.587 52.8667 116.827 53.5 116.827 54.3C116.827 55.5933 116.153 56.32 114.807 56.48V56.56C115.607 56.6267 116.2 56.88 116.587 57.32C116.987 57.7467 117.187 58.28 117.187 58.92C117.187 59.3333 117.12 59.7267 116.987 60.1C116.867 60.4733 116.687 60.8 116.447 61.08C116.207 61.36 115.913 61.5867 115.567 61.76C115.22 61.92 114.827 62 114.387 62H108.927V51.68ZM113.907 60.68C114.387 60.68 114.767 60.5533 115.047 60.3C115.327 60.0467 115.467 59.6867 115.467 59.22V58.76C115.467 58.2933 115.327 57.9333 115.047 57.68C114.767 57.4267 114.387 57.3 113.907 57.3H110.527V60.68H113.907ZM113.707 56C114.147 56 114.487 55.8933 114.727 55.68C114.98 55.4533 115.107 55.1333 115.107 54.72V54.28C115.107 53.8667 114.98 53.5533 114.727 53.34C114.487 53.1133 114.147 53 113.707 53H110.527V56H113.707ZM123.959 62.24C123.252 62.24 122.612 62.1133 122.039 61.86C121.479 61.6067 120.992 61.2467 120.579 60.78C120.179 60.3 119.866 59.7333 119.639 59.08C119.426 58.4133 119.319 57.6667 119.319 56.84C119.319 56.0267 119.426 55.2867 119.639 54.62C119.866 53.9533 120.179 53.3867 120.579 52.92C120.992 52.44 121.479 52.0733 122.039 51.82C122.612 51.5667 123.252 51.44 123.959 51.44C124.652 51.44 125.272 51.5667 125.819 51.82C126.366 52.0733 126.832 52.4267 127.219 52.88C127.606 53.32 127.899 53.8467 128.099 54.46C128.312 55.0733 128.419 55.7467 128.419 56.48V57.24H120.999V57.72C120.999 58.16 121.066 58.5733 121.199 58.96C121.346 59.3333 121.546 59.66 121.799 59.94C122.066 60.22 122.386 60.44 122.759 60.6C123.146 60.76 123.579 60.84 124.059 60.84C124.712 60.84 125.279 60.6867 125.759 60.38C126.252 60.0733 126.632 59.6333 126.899 59.06L128.039 59.88C127.706 60.5867 127.186 61.16 126.479 61.6C125.772 62.0267 124.932 62.24 123.959 62.24ZM123.959 52.78C123.519 52.78 123.119 52.86 122.759 53.02C122.399 53.1667 122.086 53.38 121.819 53.66C121.566 53.94 121.366 54.2733 121.219 54.66C121.072 55.0333 120.999 55.4467 120.999 55.9V56.04H126.699V55.82C126.699 54.9 126.446 54.1667 125.939 53.62C125.446 53.06 124.786 52.78 123.959 52.78ZM129.515 60.6H130.695C131.109 59.9333 131.442 59.1 131.695 58.1C131.949 57.1 132.075 55.9533 132.075 54.66V51.68H139.055V60.6H140.775V64.8H139.315V62H130.975V64.8H129.515V60.6ZM137.455 60.6V53.08H133.595V54.74C133.595 56.1133 133.475 57.2867 133.235 58.26C133.009 59.22 132.735 60 132.415 60.6H137.455ZM142.989 51.68H144.589V55.42H147.529C148.569 55.42 149.396 55.7133 150.009 56.3C150.622 56.8867 150.929 57.6933 150.929 58.72C150.929 59.76 150.629 60.5667 150.029 61.14C149.429 61.7133 148.602 62 147.549 62H142.989V51.68ZM147.309 60.6C147.909 60.6 148.376 60.4867 148.709 60.26C149.042 60.0333 149.209 59.6533 149.209 59.12V58.28C149.209 57.7467 149.042 57.3733 148.709 57.16C148.376 56.9333 147.909 56.82 147.309 56.82H144.589V60.6H147.309ZM158.106 51.68H159.706V55.98H164.866V51.68H166.466V62H164.866V57.38H159.706V62H158.106V51.68ZM177.364 62C176.764 62 176.331 61.84 176.064 61.52C175.811 61.2 175.651 60.8 175.584 60.32H175.484C175.257 60.96 174.884 61.44 174.364 61.76C173.844 62.08 173.224 62.24 172.504 62.24C171.411 62.24 170.557 61.96 169.944 61.4C169.344 60.84 169.044 60.08 169.044 59.12C169.044 58.1467 169.397 57.4 170.104 56.88C170.824 56.36 171.937 56.1 173.444 56.1H175.484V55.08C175.484 54.3467 175.284 53.7867 174.884 53.4C174.484 53.0133 173.871 52.82 173.044 52.82C172.417 52.82 171.891 52.96 171.464 53.24C171.051 53.52 170.704 53.8933 170.424 54.36L169.464 53.46C169.744 52.9 170.191 52.4267 170.804 52.04C171.417 51.64 172.191 51.44 173.124 51.44C174.377 51.44 175.351 51.7467 176.044 52.36C176.737 52.9733 177.084 53.8267 177.084 54.92V60.6H178.264V62H177.364ZM172.764 60.88C173.164 60.88 173.531 60.8333 173.864 60.74C174.197 60.6467 174.484 60.5133 174.724 60.34C174.964 60.1667 175.151 59.9667 175.284 59.74C175.417 59.5133 175.484 59.2667 175.484 59V57.3H173.364C172.444 57.3 171.771 57.4333 171.344 57.7C170.931 57.9667 170.724 58.3533 170.724 58.86V59.28C170.724 59.7867 170.904 60.18 171.264 60.46C171.637 60.74 172.137 60.88 172.764 60.88ZM180.548 51.68H182.648L185.788 57.04H185.868L188.988 51.68H191.068V62H189.508V53.6H189.408L188.828 54.72L185.808 59.84L182.788 54.72L182.208 53.6H182.108V62H180.548V51.68ZM203.08 62.24C202.373 62.24 201.733 62.1133 201.16 61.86C200.6 61.6067 200.113 61.2467 199.7 60.78C199.3 60.3 198.987 59.7333 198.76 59.08C198.547 58.4133 198.44 57.6667 198.44 56.84C198.44 56.0267 198.547 55.2867 198.76 54.62C198.987 53.9533 199.3 53.3867 199.7 52.92C200.113 52.44 200.6 52.0733 201.16 51.82C201.733 51.5667 202.373 51.44 203.08 51.44C203.773 51.44 204.393 51.5667 204.94 51.82C205.487 52.0733 205.953 52.4267 206.34 52.88C206.727 53.32 207.02 53.8467 207.22 54.46C207.433 55.0733 207.54 55.7467 207.54 56.48V57.24H200.12V57.72C200.12 58.16 200.187 58.5733 200.32 58.96C200.467 59.3333 200.667 59.66 200.92 59.94C201.187 60.22 201.507 60.44 201.88 60.6C202.267 60.76 202.7 60.84 203.18 60.84C203.833 60.84 204.4 60.6867 204.88 60.38C205.373 60.0733 205.753 59.6333 206.02 59.06L207.16 59.88C206.827 60.5867 206.307 61.16 205.6 61.6C204.893 62.0267 204.053 62.24 203.08 62.24ZM203.08 52.78C202.64 52.78 202.24 52.86 201.88 53.02C201.52 53.1667 201.207 53.38 200.94 53.66C200.687 53.94 200.487 54.2733 200.34 54.66C200.193 55.0333 200.12 55.4467 200.12 55.9V56.04H205.82V55.82C205.82 54.9 205.567 54.1667 205.06 53.62C204.567 53.06 203.907 52.78 203.08 52.78ZM214.017 62.24C213.297 62.24 212.65 62.1133 212.077 61.86C211.503 61.6067 211.017 61.2467 210.617 60.78C210.23 60.3133 209.93 59.7467 209.717 59.08C209.517 58.4133 209.417 57.6667 209.417 56.84C209.417 56.0133 209.517 55.2667 209.717 54.6C209.93 53.9333 210.23 53.3667 210.617 52.9C211.017 52.4333 211.503 52.0733 212.077 51.82C212.65 51.5667 213.297 51.44 214.017 51.44C215.043 51.44 215.863 51.6667 216.477 52.12C217.103 52.56 217.57 53.14 217.877 53.86L216.537 54.54C216.35 54.0067 216.043 53.5933 215.617 53.3C215.19 53.0067 214.657 52.86 214.017 52.86C213.537 52.86 213.117 52.94 212.757 53.1C212.397 53.2467 212.097 53.46 211.857 53.74C211.617 54.0067 211.437 54.3333 211.317 54.72C211.197 55.0933 211.137 55.5067 211.137 55.96V57.72C211.137 58.6267 211.377 59.3733 211.857 59.96C212.35 60.5333 213.07 60.82 214.017 60.82C215.31 60.82 216.243 60.22 216.817 59.02L217.977 59.8C217.643 60.5467 217.143 61.14 216.477 61.58C215.823 62.02 215.003 62.24 214.017 62.24ZM222.533 53.08H219.013V51.68H227.653V53.08H224.133V62H222.533V53.08ZM229.747 51.68H231.347V55.42H234.287C235.327 55.42 236.154 55.7133 236.767 56.3C237.38 56.8867 237.687 57.6933 237.687 58.72C237.687 59.76 237.387 60.5667 236.787 61.14C236.187 61.7133 235.36 62 234.307 62H229.747V51.68ZM234.067 60.6C234.667 60.6 235.134 60.4867 235.467 60.26C235.8 60.0333 235.967 59.6533 235.967 59.12V58.28C235.967 57.7467 235.8 57.3733 235.467 57.16C235.134 56.9333 234.667 56.82 234.067 56.82H231.347V60.6H234.067ZM250.624 57.26H250.524C250.204 57.62 249.811 57.92 249.344 58.16C248.877 58.3867 248.264 58.5 247.504 58.5C246.451 58.5 245.631 58.24 245.044 57.72C244.457 57.1867 244.164 56.3867 244.164 55.32V51.68H245.764V55.18C245.764 56.4333 246.504 57.06 247.984 57.06C248.744 57.06 249.371 56.96 249.864 56.76C250.371 56.5467 250.624 56.2267 250.624 55.8V51.68H252.224V62H250.624V57.26ZM257.846 53.08H254.326V51.68H262.966V53.08H259.446V62H257.846V53.08ZM268.705 62.24C268.012 62.24 267.379 62.1133 266.805 61.86C266.232 61.6067 265.739 61.2467 265.325 60.78C264.925 60.3 264.612 59.7333 264.385 59.08C264.159 58.4133 264.045 57.6667 264.045 56.84C264.045 56.0267 264.159 55.2867 264.385 54.62C264.612 53.9533 264.925 53.3867 265.325 52.92C265.739 52.44 266.232 52.0733 266.805 51.82C267.379 51.5667 268.012 51.44 268.705 51.44C269.399 51.44 270.025 51.5667 270.585 51.82C271.159 52.0733 271.652 52.44 272.065 52.92C272.479 53.3867 272.799 53.9533 273.025 54.62C273.252 55.2867 273.365 56.0267 273.365 56.84C273.365 57.6667 273.252 58.4133 273.025 59.08C272.799 59.7333 272.479 60.3 272.065 60.78C271.652 61.2467 271.159 61.6067 270.585 61.86C270.025 62.1133 269.399 62.24 268.705 62.24ZM268.705 60.82C269.572 60.82 270.279 60.5533 270.825 60.02C271.372 59.4867 271.645 58.6733 271.645 57.58V56.1C271.645 55.0067 271.372 54.1933 270.825 53.66C270.279 53.1267 269.572 52.86 268.705 52.86C267.839 52.86 267.132 53.1267 266.585 53.66C266.039 54.1933 265.765 55.0067 265.765 56.1V57.58C265.765 58.6733 266.039 59.4867 266.585 60.02C267.132 60.5533 267.839 60.82 268.705 60.82ZM284.623 62.24C283.93 62.24 283.297 62.1133 282.723 61.86C282.15 61.6067 281.657 61.2467 281.243 60.78C280.843 60.3 280.53 59.7333 280.303 59.08C280.077 58.4133 279.963 57.6667 279.963 56.84C279.963 56.0267 280.077 55.2867 280.303 54.62C280.53 53.9533 280.843 53.3867 281.243 52.92C281.657 52.44 282.15 52.0733 282.723 51.82C283.297 51.5667 283.93 51.44 284.623 51.44C285.317 51.44 285.943 51.5667 286.503 51.82C287.077 52.0733 287.57 52.44 287.983 52.92C288.397 53.3867 288.717 53.9533 288.943 54.62C289.17 55.2867 289.283 56.0267 289.283 56.84C289.283 57.6667 289.17 58.4133 288.943 59.08C288.717 59.7333 288.397 60.3 287.983 60.78C287.57 61.2467 287.077 61.6067 286.503 61.86C285.943 62.1133 285.317 62.24 284.623 62.24ZM284.623 60.82C285.49 60.82 286.197 60.5533 286.743 60.02C287.29 59.4867 287.563 58.6733 287.563 57.58V56.1C287.563 55.0067 287.29 54.1933 286.743 53.66C286.197 53.1267 285.49 52.86 284.623 52.86C283.757 52.86 283.05 53.1267 282.503 53.66C281.957 54.1933 281.683 55.0067 281.683 56.1V57.58C281.683 58.6733 281.957 59.4867 282.503 60.02C283.05 60.5533 283.757 60.82 284.623 60.82ZM295.993 62.24C295.273 62.24 294.626 62.12 294.053 61.88C293.479 61.64 292.993 61.2667 292.593 60.76C292.193 60.2533 291.879 59.6 291.653 58.8C291.439 57.9867 291.333 57.0067 291.333 55.86C291.333 54.38 291.426 53.1133 291.613 52.06C291.813 51.0067 292.126 50.14 292.553 49.46C292.979 48.78 293.519 48.2733 294.173 47.94C294.839 47.5933 295.646 47.38 296.593 47.3L299.833 47.04V48.66L296.393 48.94C295.806 48.9933 295.313 49.1067 294.913 49.28C294.513 49.4533 294.179 49.7267 293.913 50.1C293.659 50.46 293.459 50.94 293.313 51.54C293.179 52.14 293.079 52.8867 293.013 53.78H293.093C293.399 53.0733 293.793 52.5467 294.273 52.2C294.766 51.8533 295.413 51.68 296.213 51.68C296.866 51.68 297.466 51.8 298.013 52.04C298.559 52.28 299.026 52.6267 299.413 53.08C299.799 53.52 300.099 54.0733 300.312 54.74C300.539 55.3933 300.653 56.14 300.653 56.98C300.653 57.7667 300.539 58.48 300.312 59.12C300.086 59.76 299.766 60.3133 299.353 60.78C298.939 61.2467 298.446 61.6067 297.873 61.86C297.313 62.1133 296.686 62.24 295.993 62.24ZM296.073 60.82C296.486 60.82 296.866 60.7533 297.213 60.62C297.559 60.4867 297.859 60.2867 298.113 60.02C298.366 59.7533 298.566 59.4267 298.713 59.04C298.859 58.6533 298.933 58.2 298.933 57.68V56.42C298.933 55.3 298.659 54.4667 298.113 53.92C297.566 53.3733 296.833 53.1 295.913 53.1C294.953 53.1 294.233 53.34 293.753 53.82C293.286 54.2867 293.053 54.9 293.053 55.66V57.5C293.053 58.62 293.326 59.4533 293.873 60C294.419 60.5467 295.153 60.82 296.073 60.82ZM307.142 62.24C306.422 62.24 305.775 62.1133 305.202 61.86C304.628 61.6067 304.142 61.2467 303.742 60.78C303.355 60.3133 303.055 59.7467 302.842 59.08C302.642 58.4133 302.542 57.6667 302.542 56.84C302.542 56.0133 302.642 55.2667 302.842 54.6C303.055 53.9333 303.355 53.3667 303.742 52.9C304.142 52.4333 304.628 52.0733 305.202 51.82C305.775 51.5667 306.422 51.44 307.142 51.44C308.168 51.44 308.988 51.6667 309.602 52.12C310.228 52.56 310.695 53.14 311.002 53.86L309.662 54.54C309.475 54.0067 309.168 53.5933 308.742 53.3C308.315 53.0067 307.782 52.86 307.142 52.86C306.662 52.86 306.242 52.94 305.882 53.1C305.522 53.2467 305.222 53.46 304.982 53.74C304.742 54.0067 304.562 54.3333 304.442 54.72C304.322 55.0933 304.262 55.5067 304.262 55.96V57.72C304.262 58.6267 304.502 59.3733 304.982 59.96C305.475 60.5333 306.195 60.82 307.142 60.82C308.435 60.82 309.368 60.22 309.942 59.02L311.102 59.8C310.768 60.5467 310.268 61.14 309.602 61.58C308.948 62.02 308.128 62.24 307.142 62.24ZM319.662 51.68H321.242L316.622 64.4C316.502 64.7067 316.382 64.96 316.262 65.16C316.142 65.3733 315.995 65.54 315.822 65.66C315.648 65.78 315.428 65.8667 315.162 65.92C314.908 65.9733 314.595 66 314.222 66H313.402V64.6H315.022L315.802 62.4L311.942 51.68H313.542L316.022 58.7L316.502 60.38H316.602L317.162 58.7L319.662 51.68ZM321.41 60.6H322.59C323.003 59.9333 323.337 59.1 323.59 58.1C323.843 57.1 323.97 55.9533 323.97 54.66V51.68H330.95V60.6H332.67V64.8H331.21V62H322.87V64.8H321.41V60.6ZM329.35 60.6V53.08H325.49V54.74C325.49 56.1133 325.37 57.2867 325.13 58.26C324.903 59.22 324.63 60 324.31 60.6H329.35ZM334.884 51.68H336.444V57.4L336.284 59.88H336.364L337.644 57.68L341.764 51.68H343.244V62H341.684V56.28L341.844 53.8H341.764L340.484 56L336.364 62H334.884V51.68ZM348.861 53.08H345.341V51.68H353.981V53.08H350.461V62H348.861V53.08ZM356.075 51.68H357.675V55.42H360.615C361.655 55.42 362.482 55.7133 363.095 56.3C363.708 56.8867 364.015 57.6933 364.015 58.72C364.015 59.76 363.715 60.5667 363.115 61.14C362.515 61.7133 361.688 62 360.635 62H356.075V51.68ZM360.395 60.6C360.995 60.6 361.462 60.4867 361.795 60.26C362.128 60.0333 362.295 59.6533 362.295 59.12V58.28C362.295 57.7467 362.128 57.3733 361.795 57.16C361.462 56.9333 360.995 56.82 360.395 56.82H357.675V60.6H360.395ZM371.192 51.68H376.392C377.232 51.68 377.892 51.92 378.372 52.4C378.852 52.8667 379.092 53.5 379.092 54.3C379.092 55.5933 378.419 56.32 377.072 56.48V56.56C377.872 56.6267 378.466 56.88 378.852 57.32C379.252 57.7467 379.452 58.28 379.452 58.92C379.452 59.3333 379.386 59.7267 379.252 60.1C379.132 60.4733 378.952 60.8 378.712 61.08C378.472 61.36 378.179 61.5867 377.832 61.76C377.486 61.92 377.092 62 376.652 62H371.192V51.68ZM376.172 60.68C376.652 60.68 377.032 60.5533 377.312 60.3C377.592 60.0467 377.732 59.6867 377.732 59.22V58.76C377.732 58.2933 377.592 57.9333 377.312 57.68C377.032 57.4267 376.652 57.3 376.172 57.3H372.792V60.68H376.172ZM375.972 56C376.412 56 376.752 55.8933 376.992 55.68C377.246 55.4533 377.372 55.1333 377.372 54.72V54.28C377.372 53.8667 377.246 53.5533 376.992 53.34C376.752 53.1133 376.412 53 375.972 53H372.792V56H375.972ZM15.16 86.6H16.34C16.7533 85.9333 17.0867 85.1 17.34 84.1C17.5933 83.1 17.72 81.9533 17.72 80.66V77.68H24.7V86.6H26.42V90.8H24.96V88H16.62V90.8H15.16V86.6ZM23.1 86.6V79.08H19.24V80.74C19.24 82.1133 19.12 83.2867 18.88 84.26C18.6533 85.22 18.38 86 18.06 86.6H23.1ZM32.5336 88.24C31.8403 88.24 31.2069 88.1133 30.6336 87.86C30.0603 87.6067 29.5669 87.2467 29.1536 86.78C28.7536 86.3 28.4403 85.7333 28.2136 85.08C27.9869 84.4133 27.8736 83.6667 27.8736 82.84C27.8736 82.0267 27.9869 81.2867 28.2136 80.62C28.4403 79.9533 28.7536 79.3867 29.1536 78.92C29.5669 78.44 30.0603 78.0733 30.6336 77.82C31.2069 77.5667 31.8403 77.44 32.5336 77.44C33.2269 77.44 33.8536 77.5667 34.4136 77.82C34.9869 78.0733 35.4803 78.44 35.8936 78.92C36.3069 79.3867 36.6269 79.9533 36.8536 80.62C37.0803 81.2867 37.1936 82.0267 37.1936 82.84C37.1936 83.6667 37.0803 84.4133 36.8536 85.08C36.6269 85.7333 36.3069 86.3 35.8936 86.78C35.4803 87.2467 34.9869 87.6067 34.4136 87.86C33.8536 88.1133 33.2269 88.24 32.5336 88.24ZM32.5336 86.82C33.4003 86.82 34.1069 86.5533 34.6536 86.02C35.2003 85.4867 35.4736 84.6733 35.4736 83.58V82.1C35.4736 81.0067 35.2003 80.1933 34.6536 79.66C34.1069 79.1267 33.4003 78.86 32.5336 78.86C31.6669 78.86 30.9603 79.1267 30.4136 79.66C29.8669 80.1933 29.5936 81.0067 29.5936 82.1V83.58C29.5936 84.6733 29.8669 85.4867 30.4136 86.02C30.9603 86.5533 31.6669 86.82 32.5336 86.82ZM39.825 77.68H41.925L45.065 83.04H45.145L48.265 77.68H50.345V88H48.785V79.6H48.685L48.105 80.72L45.085 85.84L42.065 80.72L41.485 79.6H41.385V88H39.825V77.68ZM61.2508 88C60.6508 88 60.2174 87.84 59.9508 87.52C59.6974 87.2 59.5374 86.8 59.4708 86.32H59.3708C59.1441 86.96 58.7708 87.44 58.2508 87.76C57.7308 88.08 57.1108 88.24 56.3908 88.24C55.2974 88.24 54.4441 87.96 53.8308 87.4C53.2308 86.84 52.9308 86.08 52.9308 85.12C52.9308 84.1467 53.2841 83.4 53.9908 82.88C54.7108 82.36 55.8241 82.1 57.3308 82.1H59.3708V81.08C59.3708 80.3467 59.1708 79.7867 58.7708 79.4C58.3708 79.0133 57.7574 78.82 56.9308 78.82C56.3041 78.82 55.7774 78.96 55.3508 79.24C54.9374 79.52 54.5908 79.8933 54.3108 80.36L53.3508 79.46C53.6308 78.9 54.0774 78.4267 54.6908 78.04C55.3041 77.64 56.0774 77.44 57.0108 77.44C58.2641 77.44 59.2374 77.7467 59.9308 78.36C60.6241 78.9733 60.9708 79.8267 60.9708 80.92V86.6H62.1508V88H61.2508ZM56.6508 86.88C57.0508 86.88 57.4174 86.8333 57.7508 86.74C58.0841 86.6467 58.3708 86.5133 58.6108 86.34C58.8508 86.1667 59.0374 85.9667 59.1708 85.74C59.3041 85.5133 59.3708 85.2667 59.3708 85V83.3H57.2508C56.3308 83.3 55.6574 83.4333 55.2308 83.7C54.8174 83.9667 54.6108 84.3533 54.6108 84.86V85.28C54.6108 85.7867 54.7908 86.18 55.1508 86.46C55.5241 86.74 56.0241 86.88 56.6508 86.88ZM64.4344 77.68H66.0344V86.6H69.9144V77.68H71.5144V86.6H75.3944V77.68H76.9944V88H64.4344V77.68ZM80.3914 77.68H81.9914V81.98H87.1514V77.68H88.7514V88H87.1514V83.38H81.9914V88H80.3914V77.68ZM96.0292 88.24C95.3226 88.24 94.6826 88.1133 94.1092 87.86C93.5492 87.6067 93.0626 87.2467 92.6492 86.78C92.2492 86.3 91.9359 85.7333 91.7092 85.08C91.4959 84.4133 91.3892 83.6667 91.3892 82.84C91.3892 82.0267 91.4959 81.2867 91.7092 80.62C91.9359 79.9533 92.2492 79.3867 92.6492 78.92C93.0626 78.44 93.5492 78.0733 94.1092 77.82C94.6826 77.5667 95.3226 77.44 96.0292 77.44C96.7226 77.44 97.3426 77.5667 97.8892 77.82C98.4359 78.0733 98.9026 78.4267 99.2892 78.88C99.6759 79.32 99.9692 79.8467 100.169 80.46C100.383 81.0733 100.489 81.7467 100.489 82.48V83.24H93.0692V83.72C93.0692 84.16 93.1359 84.5733 93.2692 84.96C93.4159 85.3333 93.6159 85.66 93.8692 85.94C94.1359 86.22 94.4559 86.44 94.8292 86.6C95.2159 86.76 95.6492 86.84 96.1292 86.84C96.7826 86.84 97.3492 86.6867 97.8292 86.38C98.3226 86.0733 98.7026 85.6333 98.9692 85.06L100.109 85.88C99.7759 86.5867 99.2559 87.16 98.5492 87.6C97.8426 88.0267 97.0026 88.24 96.0292 88.24ZM96.0292 78.78C95.5892 78.78 95.1892 78.86 94.8292 79.02C94.4692 79.1667 94.1559 79.38 93.8892 79.66C93.6359 79.94 93.4359 80.2733 93.2892 80.66C93.1426 81.0333 93.0692 81.4467 93.0692 81.9V82.04H98.7692V81.82C98.7692 80.9 98.5159 80.1667 98.0092 79.62C97.5159 79.06 96.8559 78.78 96.0292 78.78ZM103.126 77.68H104.686V83.4L104.526 85.88H104.606L105.886 83.68L110.006 77.68H111.486V88H109.926V82.28L110.086 79.8H110.006L108.726 82L104.606 88H103.126V77.68ZM107.346 76.08C106.626 76.08 106.052 75.94 105.626 75.66C105.199 75.3667 104.859 74.9867 104.606 74.52L104.206 73.76L105.606 73.14L106.306 74.78C106.466 74.82 106.639 74.8533 106.826 74.88C107.012 74.8933 107.186 74.9 107.346 74.9C107.506 74.9 107.679 74.8933 107.866 74.88C108.052 74.8533 108.226 74.82 108.386 74.78L109.086 73.14L110.486 73.76L110.086 74.52C109.832 74.9867 109.492 75.3667 109.066 75.66C108.639 75.94 108.066 76.08 107.346 76.08ZM123.51 88.24C122.817 88.24 122.183 88.1133 121.61 87.86C121.037 87.6067 120.543 87.2467 120.13 86.78C119.73 86.3 119.417 85.7333 119.19 85.08C118.963 84.4133 118.85 83.6667 118.85 82.84C118.85 82.0267 118.963 81.2867 119.19 80.62C119.417 79.9533 119.73 79.3867 120.13 78.92C120.543 78.44 121.037 78.0733 121.61 77.82C122.183 77.5667 122.817 77.44 123.51 77.44C124.203 77.44 124.83 77.5667 125.39 77.82C125.963 78.0733 126.457 78.44 126.87 78.92C127.283 79.3867 127.603 79.9533 127.83 80.62C128.057 81.2867 128.17 82.0267 128.17 82.84C128.17 83.6667 128.057 84.4133 127.83 85.08C127.603 85.7333 127.283 86.3 126.87 86.78C126.457 87.2467 125.963 87.6067 125.39 87.86C124.83 88.1133 124.203 88.24 123.51 88.24ZM123.51 86.82C124.377 86.82 125.083 86.5533 125.63 86.02C126.177 85.4867 126.45 84.6733 126.45 83.58V82.1C126.45 81.0067 126.177 80.1933 125.63 79.66C125.083 79.1267 124.377 78.86 123.51 78.86C122.643 78.86 121.937 79.1267 121.39 79.66C120.843 80.1933 120.57 81.0067 120.57 82.1V83.58C120.57 84.6733 120.843 85.4867 121.39 86.02C121.937 86.5533 122.643 86.82 123.51 86.82ZM134.879 88.24C134.159 88.24 133.513 88.12 132.939 87.88C132.366 87.64 131.879 87.2667 131.479 86.76C131.079 86.2533 130.766 85.6 130.539 84.8C130.326 83.9867 130.219 83.0067 130.219 81.86C130.219 80.38 130.313 79.1133 130.499 78.06C130.699 77.0067 131.013 76.14 131.439 75.46C131.866 74.78 132.406 74.2733 133.059 73.94C133.726 73.5933 134.533 73.38 135.479 73.3L138.719 73.04V74.66L135.279 74.94C134.693 74.9933 134.199 75.1067 133.799 75.28C133.399 75.4533 133.066 75.7267 132.799 76.1C132.546 76.46 132.346 76.94 132.199 77.54C132.066 78.14 131.966 78.8867 131.899 79.78H131.979C132.286 79.0733 132.679 78.5467 133.159 78.2C133.653 77.8533 134.299 77.68 135.099 77.68C135.753 77.68 136.353 77.8 136.899 78.04C137.446 78.28 137.913 78.6267 138.299 79.08C138.686 79.52 138.986 80.0733 139.199 80.74C139.426 81.3933 139.539 82.14 139.539 82.98C139.539 83.7667 139.426 84.48 139.199 85.12C138.973 85.76 138.653 86.3133 138.239 86.78C137.826 87.2467 137.333 87.6067 136.759 87.86C136.199 88.1133 135.573 88.24 134.879 88.24ZM134.959 86.82C135.373 86.82 135.753 86.7533 136.099 86.62C136.446 86.4867 136.746 86.2867 136.999 86.02C137.253 85.7533 137.453 85.4267 137.599 85.04C137.746 84.6533 137.819 84.2 137.819 83.68V82.42C137.819 81.3 137.546 80.4667 136.999 79.92C136.453 79.3733 135.719 79.1 134.799 79.1C133.839 79.1 133.119 79.34 132.639 79.82C132.173 80.2867 131.939 80.9 131.939 81.66V83.5C131.939 84.62 132.213 85.4533 132.759 86C133.306 86.5467 134.039 86.82 134.959 86.82ZM146.028 88.24C145.308 88.24 144.662 88.1133 144.088 87.86C143.515 87.6067 143.028 87.2467 142.628 86.78C142.242 86.3133 141.942 85.7467 141.728 85.08C141.528 84.4133 141.428 83.6667 141.428 82.84C141.428 82.0133 141.528 81.2667 141.728 80.6C141.942 79.9333 142.242 79.3667 142.628 78.9C143.028 78.4333 143.515 78.0733 144.088 77.82C144.662 77.5667 145.308 77.44 146.028 77.44C147.055 77.44 147.875 77.6667 148.488 78.12C149.115 78.56 149.582 79.14 149.888 79.86L148.548 80.54C148.362 80.0067 148.055 79.5933 147.628 79.3C147.202 79.0067 146.668 78.86 146.028 78.86C145.548 78.86 145.128 78.94 144.768 79.1C144.408 79.2467 144.108 79.46 143.868 79.74C143.628 80.0067 143.448 80.3333 143.328 80.72C143.208 81.0933 143.148 81.5067 143.148 81.96V83.72C143.148 84.6267 143.388 85.3733 143.868 85.96C144.362 86.5333 145.082 86.82 146.028 86.82C147.322 86.82 148.255 86.22 148.828 85.02L149.988 85.8C149.655 86.5467 149.155 87.14 148.488 87.58C147.835 88.02 147.015 88.24 146.028 88.24ZM154.545 79.08H151.025V77.68H159.665V79.08H156.145V88H154.545V79.08ZM169.005 88C168.405 88 167.971 87.84 167.705 87.52C167.451 87.2 167.291 86.8 167.225 86.32H167.125C166.898 86.96 166.525 87.44 166.005 87.76C165.485 88.08 164.865 88.24 164.145 88.24C163.051 88.24 162.198 87.96 161.585 87.4C160.985 86.84 160.685 86.08 160.685 85.12C160.685 84.1467 161.038 83.4 161.745 82.88C162.465 82.36 163.578 82.1 165.085 82.1H167.125V81.08C167.125 80.3467 166.925 79.7867 166.525 79.4C166.125 79.0133 165.511 78.82 164.685 78.82C164.058 78.82 163.531 78.96 163.105 79.24C162.691 79.52 162.345 79.8933 162.065 80.36L161.105 79.46C161.385 78.9 161.831 78.4267 162.445 78.04C163.058 77.64 163.831 77.44 164.765 77.44C166.018 77.44 166.991 77.7467 167.685 78.36C168.378 78.9733 168.725 79.8267 168.725 80.92V86.6H169.905V88H169.005ZM164.405 86.88C164.805 86.88 165.171 86.8333 165.505 86.74C165.838 86.6467 166.125 86.5133 166.365 86.34C166.605 86.1667 166.791 85.9667 166.925 85.74C167.058 85.5133 167.125 85.2667 167.125 85V83.3H165.005C164.085 83.3 163.411 83.4333 162.985 83.7C162.571 83.9667 162.365 84.3533 162.365 84.86V85.28C162.365 85.7867 162.545 86.18 162.905 86.46C163.278 86.74 163.778 86.88 164.405 86.88ZM172.188 77.68H173.788V81.98H178.948V77.68H180.548V88H178.948V83.38H173.788V88H172.188V77.68ZM187.846 88.24C187.153 88.24 186.519 88.1133 185.946 87.86C185.373 87.6067 184.879 87.2467 184.466 86.78C184.066 86.3 183.753 85.7333 183.526 85.08C183.299 84.4133 183.186 83.6667 183.186 82.84C183.186 82.0267 183.299 81.2867 183.526 80.62C183.753 79.9533 184.066 79.3867 184.466 78.92C184.879 78.44 185.373 78.0733 185.946 77.82C186.519 77.5667 187.153 77.44 187.846 77.44C188.539 77.44 189.166 77.5667 189.726 77.82C190.299 78.0733 190.793 78.44 191.206 78.92C191.619 79.3867 191.939 79.9533 192.166 80.62C192.393 81.2867 192.506 82.0267 192.506 82.84C192.506 83.6667 192.393 84.4133 192.166 85.08C191.939 85.7333 191.619 86.3 191.206 86.78C190.793 87.2467 190.299 87.6067 189.726 87.86C189.166 88.1133 188.539 88.24 187.846 88.24ZM187.846 86.82C188.713 86.82 189.419 86.5533 189.966 86.02C190.513 85.4867 190.786 84.6733 190.786 83.58V82.1C190.786 81.0067 190.513 80.1933 189.966 79.66C189.419 79.1267 188.713 78.86 187.846 78.86C186.979 78.86 186.273 79.1267 185.726 79.66C185.179 80.1933 184.906 81.0067 184.906 82.1V83.58C184.906 84.6733 185.179 85.4867 185.726 86.02C186.273 86.5533 186.979 86.82 187.846 86.82ZM195.138 77.68H200.338C201.178 77.68 201.838 77.92 202.318 78.4C202.798 78.8667 203.038 79.5 203.038 80.3C203.038 81.5933 202.364 82.32 201.018 82.48V82.56C201.818 82.6267 202.411 82.88 202.798 83.32C203.198 83.7467 203.398 84.28 203.398 84.92C203.398 85.3333 203.331 85.7267 203.198 86.1C203.078 86.4733 202.898 86.8 202.658 87.08C202.418 87.36 202.124 87.5867 201.778 87.76C201.431 87.92 201.038 88 200.598 88H195.138V77.68ZM200.118 86.68C200.598 86.68 200.978 86.5533 201.258 86.3C201.538 86.0467 201.678 85.6867 201.678 85.22V84.76C201.678 84.2933 201.538 83.9333 201.258 83.68C200.978 83.4267 200.598 83.3 200.118 83.3H196.738V86.68H200.118ZM199.918 82C200.358 82 200.698 81.8933 200.938 81.68C201.191 81.4533 201.318 81.1333 201.318 80.72V80.28C201.318 79.8667 201.191 79.5533 200.938 79.34C200.698 79.1133 200.358 79 199.918 79H196.738V82H199.918ZM206.29 77.68H207.89V82H209.95L211.95 78.84C212.097 78.6 212.237 78.4067 212.37 78.26C212.503 78.1 212.637 77.98 212.77 77.9C212.903 77.82 213.043 77.7667 213.19 77.74C213.337 77.7 213.503 77.68 213.69 77.68H214.63V79.08H213.39L211.77 81.64C211.663 81.8133 211.57 81.9533 211.49 82.06C211.41 82.1667 211.33 82.26 211.25 82.34C211.17 82.4067 211.083 82.4667 210.99 82.52C210.897 82.56 210.783 82.6 210.65 82.64V82.72C210.93 82.76 211.17 82.8533 211.37 83C211.583 83.1333 211.803 83.4 212.03 83.8L213.61 86.6H214.79V88H213.63C213.283 88 212.963 87.9133 212.67 87.74C212.39 87.5533 212.117 87.22 211.85 86.74L209.95 83.36H207.89V88H206.29V77.68ZM220.853 88.24C220.147 88.24 219.507 88.1133 218.933 87.86C218.373 87.6067 217.887 87.2467 217.473 86.78C217.073 86.3 216.76 85.7333 216.533 85.08C216.32 84.4133 216.213 83.6667 216.213 82.84C216.213 82.0267 216.32 81.2867 216.533 80.62C216.76 79.9533 217.073 79.3867 217.473 78.92C217.887 78.44 218.373 78.0733 218.933 77.82C219.507 77.5667 220.147 77.44 220.853 77.44C221.547 77.44 222.167 77.5667 222.713 77.82C223.26 78.0733 223.727 78.4267 224.113 78.88C224.5 79.32 224.793 79.8467 224.993 80.46C225.207 81.0733 225.313 81.7467 225.313 82.48V83.24H217.893V83.72C217.893 84.16 217.96 84.5733 218.093 84.96C218.24 85.3333 218.44 85.66 218.693 85.94C218.96 86.22 219.28 86.44 219.653 86.6C220.04 86.76 220.473 86.84 220.953 86.84C221.607 86.84 222.173 86.6867 222.653 86.38C223.147 86.0733 223.527 85.6333 223.793 85.06L224.933 85.88C224.6 86.5867 224.08 87.16 223.373 87.6C222.667 88.0267 221.827 88.24 220.853 88.24ZM220.853 78.78C220.413 78.78 220.013 78.86 219.653 79.02C219.293 79.1667 218.98 79.38 218.713 79.66C218.46 79.94 218.26 80.2733 218.113 80.66C217.967 81.0333 217.893 81.4467 217.893 81.9V82.04H223.593V81.82C223.593 80.9 223.34 80.1667 222.833 79.62C222.34 79.06 221.68 78.78 220.853 78.78ZM228.579 88.24C228.153 88.24 227.839 88.1333 227.639 87.92C227.453 87.7067 227.359 87.4267 227.359 87.08V86.82C227.359 86.4733 227.453 86.1933 227.639 85.98C227.839 85.7667 228.153 85.66 228.579 85.66C229.006 85.66 229.313 85.7667 229.499 85.98C229.699 86.1933 229.799 86.4733 229.799 86.82V87.08C229.799 87.4267 229.699 87.7067 229.499 87.92C229.313 88.1333 229.006 88.24 228.579 88.24Z" fill="#FCFCFC"/>
</svg>
