<svg width="381" height="56" viewBox="0 0 381 56" fill="none" xmlns="http://www.w3.org/2000/svg">
<path d="M0.5 30C0.5 13.7076 13.7076 0.5 30 0.5H353C368.188 0.5 380.5 12.8122 380.5 28C380.5 43.1878 368.188 55.5 353 55.5H0.5V30Z" stroke="#141C15"/>
<path d="M16.86 22.04H18.5V30.8L18.34 33.66H18.4L19.8 31.14L25.76 22.04H27.28V36H25.64V27.24L25.8 24.38H25.74L24.34 26.9L18.38 36H16.86V22.04ZM30.8406 25.68H32.4406V29.98H37.6006V25.68H39.2006V36H37.6006V31.38H32.4406V36H30.8406V25.68ZM44.8184 27.08H41.2984V25.68H49.9384V27.08H46.4184V36H44.8184V27.08ZM55.6581 36.24C54.9515 36.24 54.3115 36.1133 53.7381 35.86C53.1781 35.6067 52.6915 35.2467 52.2781 34.78C51.8781 34.3 51.5648 33.7333 51.3381 33.08C51.1248 32.4133 51.0181 31.6667 51.0181 30.84C51.0181 30.0267 51.1248 29.2867 51.3381 28.62C51.5648 27.9533 51.8781 27.3867 52.2781 26.92C52.6915 26.44 53.1781 26.0733 53.7381 25.82C54.3115 25.5667 54.9515 25.44 55.6581 25.44C56.3515 25.44 56.9715 25.5667 57.5181 25.82C58.0648 26.0733 58.5315 26.4267 58.9181 26.88C59.3048 27.32 59.5981 27.8467 59.7981 28.46C60.0115 29.0733 60.1181 29.7467 60.1181 30.48V31.24H52.6981V31.72C52.6981 32.16 52.7648 32.5733 52.8981 32.96C53.0448 33.3333 53.2448 33.66 53.4981 33.94C53.7648 34.22 54.0848 34.44 54.4581 34.6C54.8448 34.76 55.2781 34.84 55.7581 34.84C56.4115 34.84 56.9781 34.6867 57.4581 34.38C57.9515 34.0733 58.3315 33.6333 58.5981 33.06L59.7381 33.88C59.4048 34.5867 58.8848 35.16 58.1781 35.6C57.4715 36.0267 56.6315 36.24 55.6581 36.24ZM55.6581 26.78C55.2181 26.78 54.8181 26.86 54.4581 27.02C54.0981 27.1667 53.7848 27.38 53.5181 27.66C53.2648 27.94 53.0648 28.2733 52.9181 28.66C52.7715 29.0333 52.6981 29.4467 52.6981 29.9V30.04H58.3981V29.82C58.3981 28.9 58.1448 28.1667 57.6381 27.62C57.1448 27.06 56.4848 26.78 55.6581 26.78ZM62.7547 25.68H64.3547V27.36H64.4347C64.7014 26.7067 65.088 26.2267 65.5947 25.92C66.1147 25.6 66.7347 25.44 67.4547 25.44C68.0947 25.44 68.6747 25.5667 69.1947 25.82C69.7147 26.0733 70.1547 26.4333 70.5147 26.9C70.888 27.3667 71.168 27.9333 71.3547 28.6C71.5547 29.2667 71.6547 30.0133 71.6547 30.84C71.6547 31.6667 71.5547 32.4133 71.3547 33.08C71.168 33.7467 70.888 34.3133 70.5147 34.78C70.1547 35.2467 69.7147 35.6067 69.1947 35.86C68.6747 36.1133 68.0947 36.24 67.4547 36.24C66.0547 36.24 65.048 35.6 64.4347 34.32H64.3547V40H62.7547V25.68ZM67.0147 34.8C67.9214 34.8 68.6347 34.52 69.1547 33.96C69.6747 33.3867 69.9347 32.64 69.9347 31.72V29.96C69.9347 29.04 69.6747 28.3 69.1547 27.74C68.6347 27.1667 67.9214 26.88 67.0147 26.88C66.6547 26.88 66.308 26.9333 65.9747 27.04C65.6547 27.1333 65.3747 27.2667 65.1347 27.44C64.8947 27.6133 64.7014 27.8267 64.5547 28.08C64.4214 28.32 64.3547 28.58 64.3547 28.86V32.7C64.3547 33.0333 64.4214 33.3333 64.5547 33.6C64.7014 33.8533 64.8947 34.0733 65.1347 34.26C65.3747 34.4333 65.6547 34.5667 65.9747 34.66C66.308 34.7533 66.6547 34.8 67.0147 34.8ZM78.2363 36.24C77.5296 36.24 76.8896 36.1133 76.3163 35.86C75.7563 35.6067 75.2696 35.2467 74.8563 34.78C74.4563 34.3 74.1429 33.7333 73.9163 33.08C73.7029 32.4133 73.5963 31.6667 73.5963 30.84C73.5963 30.0267 73.7029 29.2867 73.9163 28.62C74.1429 27.9533 74.4563 27.3867 74.8563 26.92C75.2696 26.44 75.7563 26.0733 76.3163 25.82C76.8896 25.5667 77.5296 25.44 78.2363 25.44C78.9296 25.44 79.5496 25.5667 80.0963 25.82C80.6429 26.0733 81.1096 26.4267 81.4963 26.88C81.8829 27.32 82.1763 27.8467 82.3763 28.46C82.5896 29.0733 82.6963 29.7467 82.6963 30.48V31.24H75.2763V31.72C75.2763 32.16 75.3429 32.5733 75.4763 32.96C75.6229 33.3333 75.8229 33.66 76.0763 33.94C76.3429 34.22 76.6629 34.44 77.0363 34.6C77.4229 34.76 77.8563 34.84 78.3363 34.84C78.9896 34.84 79.5563 34.6867 80.0363 34.38C80.5296 34.0733 80.9096 33.6333 81.1763 33.06L82.3163 33.88C81.9829 34.5867 81.4629 35.16 80.7563 35.6C80.0496 36.0267 79.2096 36.24 78.2363 36.24ZM78.2363 26.78C77.7963 26.78 77.3963 26.86 77.0363 27.02C76.6763 27.1667 76.3629 27.38 76.0963 27.66C75.8429 27.94 75.6429 28.2733 75.4963 28.66C75.3496 29.0333 75.2763 29.4467 75.2763 29.9V30.04H80.9763V29.82C80.9763 28.9 80.7229 28.1667 80.2163 27.62C79.7229 27.06 79.0629 26.78 78.2363 26.78ZM89.1728 36.24C88.4528 36.24 87.8061 36.1133 87.2328 35.86C86.6595 35.6067 86.1728 35.2467 85.7728 34.78C85.3861 34.3133 85.0861 33.7467 84.8728 33.08C84.6728 32.4133 84.5728 31.6667 84.5728 30.84C84.5728 30.0133 84.6728 29.2667 84.8728 28.6C85.0861 27.9333 85.3861 27.3667 85.7728 26.9C86.1728 26.4333 86.6595 26.0733 87.2328 25.82C87.8061 25.5667 88.4528 25.44 89.1728 25.44C90.1995 25.44 91.0195 25.6667 91.6328 26.12C92.2595 26.56 92.7261 27.14 93.0328 27.86L91.6928 28.54C91.5061 28.0067 91.1995 27.5933 90.7728 27.3C90.3461 27.0067 89.8128 26.86 89.1728 26.86C88.6928 26.86 88.2728 26.94 87.9128 27.1C87.5528 27.2467 87.2528 27.46 87.0128 27.74C86.7728 28.0067 86.5928 28.3333 86.4728 28.72C86.3528 29.0933 86.2928 29.5067 86.2928 29.96V31.72C86.2928 32.6267 86.5328 33.3733 87.0128 33.96C87.5061 34.5333 88.2261 34.82 89.1728 34.82C90.4661 34.82 91.3995 34.22 91.9728 33.02L93.1328 33.8C92.7995 34.5467 92.2995 35.14 91.6328 35.58C90.9795 36.02 90.1595 36.24 89.1728 36.24ZM95.3914 25.68H96.9914V29.98H102.151V25.68H103.751V36H102.151V31.38H96.9914V36H95.3914V25.68ZM111.049 36.24C110.356 36.24 109.723 36.1133 109.149 35.86C108.576 35.6067 108.083 35.2467 107.669 34.78C107.269 34.3 106.956 33.7333 106.729 33.08C106.503 32.4133 106.389 31.6667 106.389 30.84C106.389 30.0267 106.503 29.2867 106.729 28.62C106.956 27.9533 107.269 27.3867 107.669 26.92C108.083 26.44 108.576 26.0733 109.149 25.82C109.723 25.5667 110.356 25.44 111.049 25.44C111.743 25.44 112.369 25.5667 112.929 25.82C113.503 26.0733 113.996 26.44 114.409 26.92C114.823 27.3867 115.143 27.9533 115.369 28.62C115.596 29.2867 115.709 30.0267 115.709 30.84C115.709 31.6667 115.596 32.4133 115.369 33.08C115.143 33.7333 114.823 34.3 114.409 34.78C113.996 35.2467 113.503 35.6067 112.929 35.86C112.369 36.1133 111.743 36.24 111.049 36.24ZM111.049 34.82C111.916 34.82 112.623 34.5533 113.169 34.02C113.716 33.4867 113.989 32.6733 113.989 31.58V30.1C113.989 29.0067 113.716 28.1933 113.169 27.66C112.623 27.1267 111.916 26.86 111.049 26.86C110.183 26.86 109.476 27.1267 108.929 27.66C108.383 28.1933 108.109 29.0067 108.109 30.1V31.58C108.109 32.6733 108.383 33.4867 108.929 34.02C109.476 34.5533 110.183 34.82 111.049 34.82ZM118.97 33.66C119.397 33.66 119.703 33.7733 119.89 34C120.09 34.2133 120.19 34.4933 120.19 34.84V35.12C120.19 35.6667 120.03 36.2667 119.71 36.92C119.39 37.5867 118.943 38.1667 118.37 38.66H117.03C117.43 38.2333 117.75 37.8267 117.99 37.44C118.243 37.0667 118.423 36.6467 118.53 36.18C118.263 36.1133 118.063 35.9867 117.93 35.8C117.81 35.6133 117.75 35.3867 117.75 35.12V34.84C117.75 34.4933 117.843 34.2133 118.03 34C118.23 33.7733 118.543 33.66 118.97 33.66ZM135.626 36C135.026 36 134.592 35.84 134.326 35.52C134.072 35.2 133.912 34.8 133.846 34.32H133.746C133.519 34.96 133.146 35.44 132.626 35.76C132.106 36.08 131.486 36.24 130.766 36.24C129.672 36.24 128.819 35.96 128.206 35.4C127.606 34.84 127.306 34.08 127.306 33.12C127.306 32.1467 127.659 31.4 128.366 30.88C129.086 30.36 130.199 30.1 131.706 30.1H133.746V29.08C133.746 28.3467 133.546 27.7867 133.146 27.4C132.746 27.0133 132.132 26.82 131.306 26.82C130.679 26.82 130.152 26.96 129.726 27.24C129.312 27.52 128.966 27.8933 128.686 28.36L127.726 27.46C128.006 26.9 128.452 26.4267 129.066 26.04C129.679 25.64 130.452 25.44 131.386 25.44C132.639 25.44 133.612 25.7467 134.306 26.36C134.999 26.9733 135.346 27.8267 135.346 28.92V34.6H136.526V36H135.626ZM131.026 34.88C131.426 34.88 131.792 34.8333 132.126 34.74C132.459 34.6467 132.746 34.5133 132.986 34.34C133.226 34.1667 133.412 33.9667 133.546 33.74C133.679 33.5133 133.746 33.2667 133.746 33V31.3H131.626C130.706 31.3 130.032 31.4333 129.606 31.7C129.192 31.9667 128.986 32.3533 128.986 32.86V33.28C128.986 33.7867 129.166 34.18 129.526 34.46C129.899 34.74 130.399 34.88 131.026 34.88ZM143.536 25.68H145.136V27.36H145.216C145.483 26.7067 145.869 26.2267 146.376 25.92C146.896 25.6 147.516 25.44 148.236 25.44C148.876 25.44 149.456 25.5667 149.976 25.82C150.496 26.0733 150.936 26.4333 151.296 26.9C151.669 27.3667 151.949 27.9333 152.136 28.6C152.336 29.2667 152.436 30.0133 152.436 30.84C152.436 31.6667 152.336 32.4133 152.136 33.08C151.949 33.7467 151.669 34.3133 151.296 34.78C150.936 35.2467 150.496 35.6067 149.976 35.86C149.456 36.1133 148.876 36.24 148.236 36.24C146.836 36.24 145.829 35.6 145.216 34.32H145.136V40H143.536V25.68ZM147.796 34.8C148.703 34.8 149.416 34.52 149.936 33.96C150.456 33.3867 150.716 32.64 150.716 31.72V29.96C150.716 29.04 150.456 28.3 149.936 27.74C149.416 27.1667 148.703 26.88 147.796 26.88C147.436 26.88 147.089 26.9333 146.756 27.04C146.436 27.1333 146.156 27.2667 145.916 27.44C145.676 27.6133 145.483 27.8267 145.336 28.08C145.203 28.32 145.136 28.58 145.136 28.86V32.7C145.136 33.0333 145.203 33.3333 145.336 33.6C145.483 33.8533 145.676 34.0733 145.916 34.26C146.156 34.4333 146.436 34.5667 146.756 34.66C147.089 34.7533 147.436 34.8 147.796 34.8ZM162.638 36C162.038 36 161.604 35.84 161.338 35.52C161.084 35.2 160.924 34.8 160.858 34.32H160.758C160.531 34.96 160.158 35.44 159.638 35.76C159.118 36.08 158.498 36.24 157.778 36.24C156.684 36.24 155.831 35.96 155.218 35.4C154.618 34.84 154.318 34.08 154.318 33.12C154.318 32.1467 154.671 31.4 155.378 30.88C156.098 30.36 157.211 30.1 158.717 30.1H160.758V29.08C160.758 28.3467 160.558 27.7867 160.158 27.4C159.758 27.0133 159.144 26.82 158.318 26.82C157.691 26.82 157.164 26.96 156.738 27.24C156.324 27.52 155.978 27.8933 155.698 28.36L154.738 27.46C155.018 26.9 155.464 26.4267 156.077 26.04C156.691 25.64 157.464 25.44 158.398 25.44C159.651 25.44 160.624 25.7467 161.318 26.36C162.011 26.9733 162.358 27.8267 162.358 28.92V34.6H163.537V36H162.638ZM158.038 34.88C158.438 34.88 158.804 34.8333 159.138 34.74C159.471 34.6467 159.758 34.5133 159.998 34.34C160.238 34.1667 160.424 33.9667 160.558 33.74C160.691 33.5133 160.758 33.2667 160.758 33V31.3H158.638C157.718 31.3 157.044 31.4333 156.618 31.7C156.204 31.9667 155.998 32.3533 155.998 32.86V33.28C155.998 33.7867 156.178 34.18 156.538 34.46C156.911 34.74 157.411 34.88 158.038 34.88ZM169.661 36.24C168.941 36.24 168.294 36.1133 167.721 35.86C167.148 35.6067 166.661 35.2467 166.261 34.78C165.874 34.3133 165.574 33.7467 165.361 33.08C165.161 32.4133 165.061 31.6667 165.061 30.84C165.061 30.0133 165.161 29.2667 165.361 28.6C165.574 27.9333 165.874 27.3667 166.261 26.9C166.661 26.4333 167.148 26.0733 167.721 25.82C168.294 25.5667 168.941 25.44 169.661 25.44C170.688 25.44 171.508 25.6667 172.121 26.12C172.748 26.56 173.214 27.14 173.521 27.86L172.181 28.54C171.994 28.0067 171.688 27.5933 171.261 27.3C170.834 27.0067 170.301 26.86 169.661 26.86C169.181 26.86 168.761 26.94 168.401 27.1C168.041 27.2467 167.741 27.46 167.501 27.74C167.261 28.0067 167.081 28.3333 166.961 28.72C166.841 29.0933 166.781 29.5067 166.781 29.96V31.72C166.781 32.6267 167.021 33.3733 167.501 33.96C167.994 34.5333 168.714 34.82 169.661 34.82C170.954 34.82 171.888 34.22 172.461 33.02L173.621 33.8C173.288 34.5467 172.788 35.14 172.121 35.58C171.468 36.02 170.648 36.24 169.661 36.24ZM179.603 36.24C178.883 36.24 178.236 36.1133 177.663 35.86C177.089 35.6067 176.603 35.2467 176.203 34.78C175.816 34.3133 175.516 33.7467 175.303 33.08C175.103 32.4133 175.003 31.6667 175.003 30.84C175.003 30.0133 175.103 29.2667 175.303 28.6C175.516 27.9333 175.816 27.3667 176.203 26.9C176.603 26.4333 177.089 26.0733 177.663 25.82C178.236 25.5667 178.883 25.44 179.603 25.44C180.629 25.44 181.449 25.6667 182.063 26.12C182.689 26.56 183.156 27.14 183.463 27.86L182.123 28.54C181.936 28.0067 181.629 27.5933 181.203 27.3C180.776 27.0067 180.243 26.86 179.603 26.86C179.123 26.86 178.703 26.94 178.343 27.1C177.983 27.2467 177.683 27.46 177.443 27.74C177.203 28.0067 177.023 28.3333 176.903 28.72C176.783 29.0933 176.723 29.5067 176.723 29.96V31.72C176.723 32.6267 176.963 33.3733 177.443 33.96C177.936 34.5333 178.656 34.82 179.603 34.82C180.896 34.82 181.829 34.22 182.403 33.02L183.563 33.8C183.229 34.5467 182.729 35.14 182.063 35.58C181.409 36.02 180.589 36.24 179.603 36.24ZM185.821 25.68H187.421V30H189.481L191.481 26.84C191.628 26.6 191.768 26.4067 191.901 26.26C192.034 26.1 192.168 25.98 192.301 25.9C192.434 25.82 192.574 25.7667 192.721 25.74C192.868 25.7 193.034 25.68 193.221 25.68H194.161V27.08H192.921L191.301 29.64C191.194 29.8133 191.101 29.9533 191.021 30.06C190.941 30.1667 190.861 30.26 190.781 30.34C190.701 30.4067 190.614 30.4667 190.521 30.52C190.428 30.56 190.314 30.6 190.181 30.64V30.72C190.461 30.76 190.701 30.8533 190.901 31C191.114 31.1333 191.334 31.4 191.561 31.8L193.141 34.6H194.321V36H193.161C192.814 36 192.494 35.9133 192.201 35.74C191.921 35.5533 191.648 35.22 191.381 34.74L189.481 31.36H187.421V36H185.821V25.68ZM204.122 36C203.522 36 203.089 35.84 202.822 35.52C202.569 35.2 202.409 34.8 202.342 34.32H202.242C202.015 34.96 201.642 35.44 201.122 35.76C200.602 36.08 199.982 36.24 199.262 36.24C198.169 36.24 197.315 35.96 196.702 35.4C196.102 34.84 195.802 34.08 195.802 33.12C195.802 32.1467 196.155 31.4 196.862 30.88C197.582 30.36 198.695 30.1 200.202 30.1H202.242V29.08C202.242 28.3467 202.042 27.7867 201.642 27.4C201.242 27.0133 200.629 26.82 199.802 26.82C199.175 26.82 198.649 26.96 198.222 27.24C197.809 27.52 197.462 27.8933 197.182 28.36L196.222 27.46C196.502 26.9 196.949 26.4267 197.562 26.04C198.175 25.64 198.949 25.44 199.882 25.44C201.135 25.44 202.109 25.7467 202.802 26.36C203.495 26.9733 203.842 27.8267 203.842 28.92V34.6H205.022V36H204.122ZM199.522 34.88C199.922 34.88 200.289 34.8333 200.622 34.74C200.955 34.6467 201.242 34.5133 201.482 34.34C201.722 34.1667 201.909 33.9667 202.042 33.74C202.175 33.5133 202.242 33.2667 202.242 33V31.3H200.122C199.202 31.3 198.529 31.4333 198.102 31.7C197.689 31.9667 197.482 32.3533 197.482 32.86V33.28C197.482 33.7867 197.662 34.18 198.022 34.46C198.395 34.74 198.895 34.88 199.522 34.88ZM206.405 34.6H207.605L208.765 31.82C208.912 31.4733 209.092 31.2133 209.305 31.04C209.519 30.8667 209.759 30.76 210.025 30.72V30.64C209.759 30.56 209.525 30.4267 209.325 30.24C209.125 30.0533 208.952 29.7933 208.805 29.46L207.745 27.08H206.545V25.68H207.485C207.885 25.68 208.232 25.78 208.525 25.98C208.832 26.18 209.085 26.5 209.285 26.94L210.665 30H212.505V25.68H214.105V30H215.945L217.325 26.94C217.525 26.5 217.772 26.18 218.065 25.98C218.372 25.78 218.725 25.68 219.125 25.68H220.065V27.08H218.865L217.805 29.46C217.659 29.7933 217.485 30.0533 217.285 30.24C217.085 30.4267 216.852 30.56 216.585 30.64V30.72C216.852 30.76 217.092 30.8667 217.305 31.04C217.519 31.2133 217.699 31.4733 217.845 31.82L219.005 34.6H220.205V36H219.065C218.705 36 218.379 35.9067 218.085 35.72C217.792 35.52 217.532 35.1467 217.305 34.6L215.945 31.36H214.105V36H212.505V31.36H210.665L209.305 34.6C209.079 35.1467 208.819 35.52 208.525 35.72C208.232 35.9067 207.905 36 207.545 36H206.405V34.6ZM222.696 25.68H224.256V31.4L224.096 33.88H224.176L225.456 31.68L229.576 25.68H231.056V36H229.496V30.28L229.656 27.8H229.576L228.296 30L224.176 36H222.696V25.68ZM236.674 27.08H233.154V25.68H241.794V27.08H238.274V36H236.674V27.08ZM247.514 36.24C246.807 36.24 246.167 36.1133 245.594 35.86C245.034 35.6067 244.547 35.2467 244.134 34.78C243.734 34.3 243.42 33.7333 243.194 33.08C242.98 32.4133 242.874 31.6667 242.874 30.84C242.874 30.0267 242.98 29.2867 243.194 28.62C243.42 27.9533 243.734 27.3867 244.134 26.92C244.547 26.44 245.034 26.0733 245.594 25.82C246.167 25.5667 246.807 25.44 247.514 25.44C248.207 25.44 248.827 25.5667 249.374 25.82C249.92 26.0733 250.387 26.4267 250.774 26.88C251.16 27.32 251.454 27.8467 251.654 28.46C251.867 29.0733 251.974 29.7467 251.974 30.48V31.24H244.554V31.72C244.554 32.16 244.62 32.5733 244.754 32.96C244.9 33.3333 245.1 33.66 245.354 33.94C245.62 34.22 245.94 34.44 246.314 34.6C246.7 34.76 247.134 34.84 247.614 34.84C248.267 34.84 248.834 34.6867 249.314 34.38C249.807 34.0733 250.187 33.6333 250.454 33.06L251.594 33.88C251.26 34.5867 250.74 35.16 250.034 35.6C249.327 36.0267 248.487 36.24 247.514 36.24ZM247.514 26.78C247.074 26.78 246.674 26.86 246.314 27.02C245.954 27.1667 245.64 27.38 245.374 27.66C245.12 27.94 244.92 28.2733 244.774 28.66C244.627 29.0333 244.554 29.4467 244.554 29.9V30.04H250.254V29.82C250.254 28.9 250 28.1667 249.494 27.62C249 27.06 248.34 26.78 247.514 26.78ZM259.337 25.68H267.397V36H265.797V27.08H260.937V36H259.337V25.68ZM274.702 36.24C274.008 36.24 273.375 36.1133 272.802 35.86C272.228 35.6067 271.735 35.2467 271.322 34.78C270.922 34.3 270.608 33.7333 270.382 33.08C270.155 32.4133 270.042 31.6667 270.042 30.84C270.042 30.0267 270.155 29.2867 270.382 28.62C270.608 27.9533 270.922 27.3867 271.322 26.92C271.735 26.44 272.228 26.0733 272.802 25.82C273.375 25.5667 274.008 25.44 274.702 25.44C275.395 25.44 276.022 25.5667 276.582 25.82C277.155 26.0733 277.648 26.44 278.062 26.92C278.475 27.3867 278.795 27.9533 279.022 28.62C279.248 29.2867 279.362 30.0267 279.362 30.84C279.362 31.6667 279.248 32.4133 279.022 33.08C278.795 33.7333 278.475 34.3 278.062 34.78C277.648 35.2467 277.155 35.6067 276.582 35.86C276.022 36.1133 275.395 36.24 274.702 36.24ZM274.702 34.82C275.568 34.82 276.275 34.5533 276.822 34.02C277.368 33.4867 277.642 32.6733 277.642 31.58V30.1C277.642 29.0067 277.368 28.1933 276.822 27.66C276.275 27.1267 275.568 26.86 274.702 26.86C273.835 26.86 273.128 27.1267 272.582 27.66C272.035 28.1933 271.762 29.0067 271.762 30.1V31.58C271.762 32.6733 272.035 33.4867 272.582 34.02C273.128 34.5533 273.835 34.82 274.702 34.82ZM280.414 34.6H281.594C282.007 33.9333 282.341 33.1 282.594 32.1C282.847 31.1 282.974 29.9533 282.974 28.66V25.68H289.954V34.6H291.674V38.8H290.214V36H281.874V38.8H280.414V34.6ZM288.354 34.6V27.08H284.494V28.74C284.494 30.1133 284.374 31.2867 284.134 32.26C283.907 33.22 283.634 34 283.314 34.6H288.354ZM293.888 25.68H295.488V27.36H295.568C295.834 26.7067 296.221 26.2267 296.728 25.92C297.248 25.6 297.868 25.44 298.588 25.44C299.228 25.44 299.808 25.5667 300.328 25.82C300.848 26.0733 301.288 26.4333 301.648 26.9C302.021 27.3667 302.301 27.9333 302.488 28.6C302.688 29.2667 302.788 30.0133 302.788 30.84C302.788 31.6667 302.688 32.4133 302.488 33.08C302.301 33.7467 302.021 34.3133 301.648 34.78C301.288 35.2467 300.848 35.6067 300.328 35.86C299.808 36.1133 299.228 36.24 298.588 36.24C297.188 36.24 296.181 35.6 295.568 34.32H295.488V40H293.888V25.68ZM298.148 34.8C299.054 34.8 299.768 34.52 300.288 33.96C300.808 33.3867 301.068 32.64 301.068 31.72V29.96C301.068 29.04 300.808 28.3 300.288 27.74C299.768 27.1667 299.054 26.88 298.148 26.88C297.788 26.88 297.441 26.9333 297.108 27.04C296.788 27.1333 296.508 27.2667 296.268 27.44C296.028 27.6133 295.834 27.8267 295.688 28.08C295.554 28.32 295.488 28.58 295.488 28.86V32.7C295.488 33.0333 295.554 33.3333 295.688 33.6C295.834 33.8533 296.028 34.0733 296.268 34.26C296.508 34.4333 296.788 34.5667 297.108 34.66C297.441 34.7533 297.788 34.8 298.148 34.8ZM309.389 36.24C308.696 36.24 308.062 36.1133 307.489 35.86C306.916 35.6067 306.422 35.2467 306.009 34.78C305.609 34.3 305.296 33.7333 305.069 33.08C304.842 32.4133 304.729 31.6667 304.729 30.84C304.729 30.0267 304.842 29.2867 305.069 28.62C305.296 27.9533 305.609 27.3867 306.009 26.92C306.422 26.44 306.916 26.0733 307.489 25.82C308.062 25.5667 308.696 25.44 309.389 25.44C310.082 25.44 310.709 25.5667 311.269 25.82C311.842 26.0733 312.336 26.44 312.749 26.92C313.162 27.3867 313.482 27.9533 313.709 28.62C313.936 29.2867 314.049 30.0267 314.049 30.84C314.049 31.6667 313.936 32.4133 313.709 33.08C313.482 33.7333 313.162 34.3 312.749 34.78C312.336 35.2467 311.842 35.6067 311.269 35.86C310.709 36.1133 310.082 36.24 309.389 36.24ZM309.389 34.82C310.256 34.82 310.962 34.5533 311.509 34.02C312.056 33.4867 312.329 32.6733 312.329 31.58V30.1C312.329 29.0067 312.056 28.1933 311.509 27.66C310.962 27.1267 310.256 26.86 309.389 26.86C308.522 26.86 307.816 27.1267 307.269 27.66C306.722 28.1933 306.449 29.0067 306.449 30.1V31.58C306.449 32.6733 306.722 33.4867 307.269 34.02C307.816 34.5533 308.522 34.82 309.389 34.82ZM320.758 36.24C320.038 36.24 319.391 36.12 318.818 35.88C318.245 35.64 317.758 35.2667 317.358 34.76C316.958 34.2533 316.645 33.6 316.418 32.8C316.205 31.9867 316.098 31.0067 316.098 29.86C316.098 28.38 316.191 27.1133 316.378 26.06C316.578 25.0067 316.891 24.14 317.318 23.46C317.745 22.78 318.285 22.2733 318.938 21.94C319.605 21.5933 320.411 21.38 321.358 21.3L324.598 21.04V22.66L321.158 22.94C320.571 22.9933 320.078 23.1067 319.678 23.28C319.278 23.4533 318.945 23.7267 318.678 24.1C318.425 24.46 318.225 24.94 318.078 25.54C317.945 26.14 317.845 26.8867 317.778 27.78H317.858C318.165 27.0733 318.558 26.5467 319.038 26.2C319.531 25.8533 320.178 25.68 320.978 25.68C321.631 25.68 322.231 25.8 322.778 26.04C323.325 26.28 323.791 26.6267 324.178 27.08C324.565 27.52 324.865 28.0733 325.078 28.74C325.305 29.3933 325.418 30.14 325.418 30.98C325.418 31.7667 325.305 32.48 325.078 33.12C324.851 33.76 324.531 34.3133 324.118 34.78C323.705 35.2467 323.211 35.6067 322.638 35.86C322.078 36.1133 321.451 36.24 320.758 36.24ZM320.838 34.82C321.251 34.82 321.631 34.7533 321.978 34.62C322.325 34.4867 322.625 34.2867 322.878 34.02C323.131 33.7533 323.331 33.4267 323.478 33.04C323.625 32.6533 323.698 32.2 323.698 31.68V30.42C323.698 29.3 323.425 28.4667 322.878 27.92C322.331 27.3733 321.598 27.1 320.678 27.1C319.718 27.1 318.998 27.34 318.518 27.82C318.051 28.2867 317.818 28.9 317.818 29.66V31.5C317.818 32.62 318.091 33.4533 318.638 34C319.185 34.5467 319.918 34.82 320.838 34.82ZM328.067 25.68H329.667V29.98H334.827V25.68H336.427V36H334.827V31.38H329.667V36H328.067V25.68ZM343.705 36.24C342.998 36.24 342.358 36.1133 341.785 35.86C341.225 35.6067 340.738 35.2467 340.325 34.78C339.925 34.3 339.612 33.7333 339.385 33.08C339.172 32.4133 339.065 31.6667 339.065 30.84C339.065 30.0267 339.172 29.2867 339.385 28.62C339.612 27.9533 339.925 27.3867 340.325 26.92C340.738 26.44 341.225 26.0733 341.785 25.82C342.358 25.5667 342.998 25.44 343.705 25.44C344.398 25.44 345.018 25.5667 345.565 25.82C346.112 26.0733 346.578 26.4267 346.965 26.88C347.352 27.32 347.645 27.8467 347.845 28.46C348.058 29.0733 348.165 29.7467 348.165 30.48V31.24H340.745V31.72C340.745 32.16 340.812 32.5733 340.945 32.96C341.092 33.3333 341.292 33.66 341.545 33.94C341.812 34.22 342.132 34.44 342.505 34.6C342.892 34.76 343.325 34.84 343.805 34.84C344.458 34.84 345.025 34.6867 345.505 34.38C345.998 34.0733 346.378 33.6333 346.645 33.06L347.785 33.88C347.452 34.5867 346.932 35.16 346.225 35.6C345.518 36.0267 344.678 36.24 343.705 36.24ZM343.705 26.78C343.265 26.78 342.865 26.86 342.505 27.02C342.145 27.1667 341.832 27.38 341.565 27.66C341.312 27.94 341.112 28.2733 340.965 28.66C340.818 29.0333 340.745 29.4467 340.745 29.9V30.04H346.445V29.82C346.445 28.9 346.192 28.1667 345.685 27.62C345.192 27.06 344.532 26.78 343.705 26.78ZM354.682 36.24C353.975 36.24 353.335 36.1133 352.762 35.86C352.202 35.6067 351.715 35.2467 351.302 34.78C350.902 34.3 350.588 33.7333 350.362 33.08C350.148 32.4133 350.042 31.6667 350.042 30.84C350.042 30.0267 350.148 29.2867 350.362 28.62C350.588 27.9533 350.902 27.3867 351.302 26.92C351.715 26.44 352.202 26.0733 352.762 25.82C353.335 25.5667 353.975 25.44 354.682 25.44C355.375 25.44 355.995 25.5667 356.542 25.82C357.088 26.0733 357.555 26.4267 357.942 26.88C358.328 27.32 358.622 27.8467 358.822 28.46C359.035 29.0733 359.142 29.7467 359.142 30.48V31.24H351.722V31.72C351.722 32.16 351.788 32.5733 351.922 32.96C352.068 33.3333 352.268 33.66 352.522 33.94C352.788 34.22 353.108 34.44 353.482 34.6C353.868 34.76 354.302 34.84 354.782 34.84C355.435 34.84 356.002 34.6867 356.482 34.38C356.975 34.0733 357.355 33.6333 357.622 33.06L358.762 33.88C358.428 34.5867 357.908 35.16 357.202 35.6C356.495 36.0267 355.655 36.24 354.682 36.24ZM354.682 26.78C354.242 26.78 353.842 26.86 353.482 27.02C353.122 27.1667 352.808 27.38 352.542 27.66C352.288 27.94 352.088 28.2733 351.942 28.66C351.795 29.0333 351.722 29.4467 351.722 29.9V30.04H357.422V29.82C357.422 28.9 357.168 28.1667 356.662 27.62C356.168 27.06 355.508 26.78 354.682 26.78ZM362.518 32.3L362.038 26.1V22.04H363.798V26.1L363.318 32.3H362.518ZM362.918 36.24C362.491 36.24 362.178 36.1333 361.978 35.92C361.791 35.7067 361.698 35.4267 361.698 35.08V34.82C361.698 34.4733 361.791 34.1933 361.978 33.98C362.178 33.7667 362.491 33.66 362.918 33.66C363.345 33.66 363.651 33.7667 363.838 33.98C364.038 34.1933 364.138 34.4733 364.138 34.82V35.08C364.138 35.4267 364.038 35.7067 363.838 35.92C363.651 36.1333 363.345 36.24 362.918 36.24Z" fill="#141C15"/>
</svg>
