<svg xmlns="http://www.w3.org/2000/svg" version="1" width="682.667" height="682.667" viewBox="0 0 512 512"><style>@media (prefers-color-scheme:dark){path{fill:#fff}}</style><path fill="#fff" d="M61.7 61.8C27.8 95.7 0 124 0 124.5S29.5 155 65.5 191l65.5 65.5L65.5 322C29.5 358 0 387.9 0 388.5 0 389.8 122.2 512 123.5 512c.6 0 30.5-29.5 66.5-65.5l65.5-65.5 65.5 65.5c36 36 66 65.5 66.5 65.5.6 0 28.8-27.8 62.8-61.8l61.7-61.7-66-66-66-66 66-66 66-66-62.3-62.3L387.5 0l-66 66-66 66-66-66-66-66-61.8 61.8z"/></svg>